<?xml version="1.0" standalone="no"?>
<!DOCTYPE svg PUBLIC "-//W3C//DTD SVG 20010904//EN"
 "http://www.w3.org/TR/2001/REC-SVG-20010904/DTD/svg10.dtd">
<svg version="1.0" xmlns="http://www.w3.org/2000/svg"
 width="1024.000000pt" height="1024.000000pt" viewBox="0 0 1024.000000 1024.000000"
 preserveAspectRatio="xMidYMid meet">
<metadata>
Created by potrace 1.14, written by Peter Selinger 2001-2017
</metadata>
<g transform="translate(0.000000,1024.000000) scale(0.100000,-0.100000)"
fill="#000000" stroke="none">
<path d="M0 9185 c0 -697 3 -1055 10 -1055 9 0 14 15 11 33 -1 5 3 6 8 3 12
-8 22 23 21 66 -1 56 6 83 21 83 8 0 14 -10 14 -24 0 -13 6 -25 13 -27 7 -1 8
0 3 2 -7 4 -5 14 3 27 8 12 16 31 18 42 2 11 11 29 21 40 17 19 19 19 28 3 12
-21 25 -24 26 -5 1 21 8 42 17 48 5 4 8 18 9 32 0 21 4 24 24 22 14 -1 30 -9
35 -16 7 -11 8 -9 4 5 -5 13 -2 17 8 13 11 -4 13 -1 9 10 -5 12 -2 15 9 10 13
-4 15 1 14 24 -2 29 -1 30 33 27 28 -2 35 0 33 13 -1 8 6 24 16 35 10 10 18
30 19 43 1 13 6 28 12 34 12 12 33 -1 24 -16 -4 -7 1 -6 10 2 10 8 16 19 14
25 -2 6 7 28 20 49 17 26 21 42 15 55 -5 9 -7 23 -5 30 6 14 33 16 33 2 0 -5
8 -10 18 -10 13 0 17 9 19 37 1 22 9 43 19 50 10 7 12 13 6 13 -7 0 -12 9 -12
21 0 14 5 19 18 17 9 -2 16 -11 16 -21 -2 -15 2 -14 27 4 16 11 29 29 29 39 0
28 17 33 33 10 14 -20 16 -20 32 -4 9 9 14 25 12 36 -3 10 2 24 11 31 20 14
22 49 5 54 -10 4 -9 8 2 20 8 8 13 19 9 24 -3 5 -2 19 2 31 l7 22 19 -24 c15
-18 16 -25 6 -31 -8 -6 -1 -9 21 -9 26 0 32 3 27 16 -3 9 -6 18 -6 20 0 3 -6
2 -12 -2 -8 -4 -10 -3 -5 2 5 5 14 9 20 9 7 0 13 19 15 45 4 73 8 94 20 98 7
2 10 -7 7 -27 -2 -17 1 -33 6 -37 6 -4 6 -11 -1 -19 -9 -10 -6 -15 11 -20 13
-4 24 -2 29 5 4 6 11 11 16 10 5 -1 10 3 12 9 2 6 -2 11 -10 12 -7 0 0 6 16
14 29 12 29 13 7 20 -23 7 -24 26 -1 33 7 3 10 0 6 -7 -4 -6 -1 -11 8 -11 9 0
16 5 16 10 0 6 5 10 10 10 6 0 20 9 32 19 16 16 19 27 14 55 -7 39 6 55 30 35
14 -12 14 -14 0 -25 -13 -9 -14 -13 -3 -17 8 -3 20 -1 28 4 8 5 10 9 5 9 -5 0
-2 8 6 18 9 9 14 25 13 34 -2 10 1 21 6 24 6 3 7 15 3 26 -6 19 -3 20 25 15
17 -4 30 -3 29 1 -3 10 26 72 34 72 3 0 4 10 1 21 -4 14 0 25 11 31 20 11 21
34 1 42 -13 4 -14 10 -5 26 6 11 7 20 3 20 -4 0 -2 5 5 12 9 9 15 9 24 0 9 -9
9 -12 -2 -12 -10 0 -8 -4 4 -13 22 -16 62 -15 59 2 -2 6 2 11 7 11 7 0 8 13 4
35 -5 31 -4 35 15 35 23 0 24 -4 11 -35 -11 -27 15 -55 52 -55 15 0 28 5 28
10 0 6 -5 10 -12 10 -23 0 2 13 29 15 66 5 65 4 60 25 -3 13 -1 18 6 13 6 -4
8 2 5 15 -4 12 -2 25 3 28 5 3 7 9 4 14 -3 5 -1 11 5 15 6 4 6 12 -2 24 -13
22 -3 55 15 48 6 -2 13 -17 13 -33 2 -50 4 -56 15 -52 6 2 10 7 9 12 -1 5 4
13 12 17 10 7 10 9 1 9 -7 0 -13 5 -13 11 0 5 4 7 10 4 11 -7 13 6 14 70 1 33
4 40 21 40 23 0 33 -34 13 -46 -10 -7 -8 -9 6 -9 15 0 17 -3 9 -11 -6 -6 -9
-17 -6 -24 3 -10 9 -10 22 3 10 9 16 20 14 25 -2 4 0 7 5 7 5 0 12 18 16 40 7
45 23 52 32 15 6 -26 24 -35 24 -11 0 7 11 25 24 39 15 16 20 29 14 35 -6 6
-2 11 11 15 23 6 40 -11 23 -22 -6 -4 -7 -12 -3 -19 6 -10 11 -10 21 3 7 8 19
15 26 15 8 0 11 6 8 15 -4 9 0 15 7 16 38 2 64 11 72 24 4 9 12 13 18 10 5 -4
9 -2 9 4 0 5 -4 13 -10 16 -5 3 -10 11 -10 17 0 6 6 6 15 -2 13 -11 14 -10 9
4 -4 10 -1 16 7 16 12 0 12 2 0 9 -10 7 -11 10 -1 16 8 5 18 2 25 -8 10 -14
56 -21 52 -7 -1 3 4 15 11 28 l13 22 -1076 0 -1075 0 0 -1055z m1690 1000 c0
-8 -8 -15 -17 -14 -13 0 -14 2 -4 6 11 5 11 7 0 14 -11 7 -10 9 4 9 9 0 17 -7
17 -15z m97 9 c-3 -3 -12 -4 -19 -1 -8 3 -5 6 6 6 11 1 17 -2 13 -5z m89 -3
c-4 -5 0 -11 6 -14 7 -2 10 -8 6 -12 -12 -13 -38 3 -32 20 3 8 10 15 16 15 5
0 7 -4 4 -9z m99 -1 c-3 -5 -1 -10 6 -10 9 0 10 -3 3 -10 -6 -6 -18 -8 -27 -4
-13 5 -14 9 -4 20 14 15 31 19 22 4z m-190 -20 c-3 -5 -12 -7 -20 -3 -21 7
-19 13 6 13 11 0 18 -4 14 -10z m182 -27 c-4 -3 -2 -12 3 -18 8 -9 6 -15 -6
-19 -9 -4 -19 -5 -21 -2 -6 5 16 46 24 46 3 0 3 -3 0 -7z m-90 -23 c2 -22 -12
-35 -22 -20 -3 5 -2 10 4 10 6 0 8 7 5 15 -4 8 -2 15 3 15 5 0 9 -9 10 -20z
m-187 -4 c0 -11 -19 -15 -25 -6 -3 5 1 10 9 10 9 0 16 -2 16 -4z m100 -5 c0
-5 -6 -12 -12 -15 -10 -5 -10 -7 0 -12 17 -8 15 -24 -2 -24 -21 0 -30 18 -17
34 6 7 8 16 4 19 -3 4 1 7 10 7 10 0 17 -4 17 -9z m-97 -46 c-4 -15 -36 -12
-41 3 -3 9 3 13 19 10 13 -1 23 -7 22 -13z m-93 -9 c0 -11 -19 -15 -25 -6 -3
5 1 10 9 10 9 0 16 -2 16 -4z m-90 -77 c0 -5 -4 -9 -8 -9 -5 0 -9 7 -9 15 0 8
4 12 9 9 4 -3 8 -9 8 -15z m95 1 c0 -22 -29 -18 -33 3 -3 14 1 18 15 15 10 -2
18 -10 18 -18z m-95 -86 c0 -14 -12 -19 -23 -8 -9 9 4 35 14 28 5 -3 9 -12 9
-20z m-395 7 c3 -5 2 -12 -3 -15 -5 -3 -9 1 -9 9 0 17 3 19 12 6z m285 -11
c-20 -13 -30 -12 -30 1 0 5 4 8 9 4 5 -3 13 0 16 6 4 5 10 8 13 4 4 -3 0 -10
-8 -15z m-190 0 c0 -5 -5 -10 -11 -10 -5 0 -7 5 -4 10 3 6 8 10 11 10 2 0 4
-4 4 -10z m90 -2 c0 -4 -7 -8 -15 -8 -8 0 -15 4 -15 8 0 5 7 9 15 9 8 0 15 -4
15 -9z m-96 -67 c8 -12 -4 -41 -16 -41 -6 0 -7 7 -4 16 3 8 2 12 -4 9 -11 -7
-14 8 -3 18 9 10 21 9 27 -2z m102 -3 c4 -7 4 -10 -1 -6 -4 4 -14 3 -22 -3
-13 -11 -19 2 -6 14 10 11 21 8 29 -5z m104 2 c0 -5 -9 -10 -21 -10 -11 0 -17
5 -14 10 3 6 13 10 21 10 8 0 14 -4 14 -10z m98 -2 c-6 -18 -28 -21 -28 -4 0
9 7 16 16 16 9 0 14 -5 12 -12z m-393 -36 c-3 -3 -11 0 -18 7 -9 10 -8 11 6 5
10 -3 15 -9 12 -12z m177 -4 c-6 -6 -15 -8 -19 -4 -4 4 -1 11 7 16 19 12 27 3
12 -12z m219 -11 c-13 -13 -26 -3 -16 12 3 6 11 8 17 5 6 -4 6 -10 -1 -17z
m-306 -27 c3 -5 2 -10 -4 -10 -5 0 -13 5 -16 10 -3 6 -2 10 4 10 5 0 13 -4 16
-10z m-95 -20 c0 -5 -5 -10 -11 -10 -5 0 -7 5 -4 10 3 6 8 10 11 10 2 0 4 -4
4 -10z m100 -21 c0 -14 -5 -19 -17 -17 -26 5 -29 38 -4 38 15 0 21 -6 21 -21z
m-90 -3 c0 -11 -19 -15 -25 -6 -3 5 1 10 9 10 9 0 16 -2 16 -4z m88 -74 c2
-14 -2 -22 -12 -22 -19 0 -29 17 -22 36 8 22 30 12 34 -14z m-88 -13 c0 -5 -7
-9 -15 -9 -15 0 -20 12 -9 23 8 8 24 -1 24 -14z m88 -52 c2 -10 -4 -20 -13
-23 -21 -9 -28 0 -20 26 8 24 28 22 33 -3z m-90 -14 c-2 -9 -10 -19 -18 -21
-13 -5 -13 -3 0 13 9 11 10 16 3 11 -7 -4 -13 -2 -13 3 0 6 7 11 16 11 9 0 14
-7 12 -17z m-204 -11 c2 -4 -4 -9 -15 -9 -11 -1 -17 2 -14 8 7 11 22 12 29 1z
m197 -55 c-1 -12 -15 -9 -19 4 -3 6 1 10 8 8 6 -3 11 -8 11 -12z m-291 -47 c0
-5 -5 -10 -11 -10 -5 0 -7 5 -4 10 3 6 8 10 11 10 2 0 4 -4 4 -10z m103 -16
c-3 -8 -9 -14 -14 -14 -4 0 -5 7 -2 17 5 12 3 14 -7 8 -8 -5 -11 -4 -6 3 9 16
36 3 29 -14z m97 5 c0 -5 -7 -9 -15 -9 -15 0 -20 12 -9 23 8 8 24 -1 24 -14z
m-200 -69 c0 -5 -7 -7 -15 -4 -8 4 -15 8 -15 10 0 2 7 4 15 4 8 0 15 -4 15
-10z m100 -10 c0 -5 -7 -10 -15 -10 -8 0 -15 5 -15 10 0 6 7 10 15 10 8 0 15
-4 15 -10z m100 0 c0 -5 -10 -10 -22 -10 -19 0 -20 2 -8 10 19 13 30 13 30 0z
m-202 -32 c-6 -18 -25 -21 -25 -3 0 8 7 15 15 15 7 0 12 -5 10 -12z m-1 -54
c-3 -3 -12 -4 -19 -1 -8 3 -5 6 6 6 11 1 17 -2 13 -5z m-98 -40 c-15 -18 -22
-13 -13 10 3 9 10 13 16 10 5 -3 4 -12 -3 -20z m109 3 c2 -12 -3 -17 -18 -17
-18 0 -20 3 -11 13 6 8 7 17 3 22 -4 4 0 6 8 3 8 -3 16 -12 18 -21z m-193 -7
c-3 -5 -11 -10 -16 -10 -6 0 -7 5 -4 10 3 6 11 10 16 10 6 0 7 -4 4 -10z m91
-69 c-10 -15 -37 -14 -33 2 3 18 20 28 31 17 4 -4 5 -13 2 -19z m-86 -8 c0 -5
-4 -14 -9 -21 -6 -10 -10 -9 -14 7 -3 14 0 21 9 21 8 0 14 -3 14 -7z m84 -22
c3 -5 -2 -15 -11 -22 -12 -10 -14 -10 -9 -1 4 7 2 12 -4 12 -6 0 -8 5 -5 10 8
12 22 13 29 1z m-174 -66 c0 -8 -7 -15 -15 -15 -16 0 -20 12 -8 23 11 12 23 8
23 -8z m84 -2 c9 -22 -10 -41 -25 -26 -13 13 -5 43 10 43 5 0 12 -8 15 -17z
m92 -15 c1 -20 -3 -24 -18 -21 -10 3 -18 13 -18 22 0 40 34 39 36 -1z m-181
-38 c-3 -5 -11 -10 -16 -10 -6 0 -7 5 -4 10 3 6 11 10 16 10 6 0 7 -4 4 -10z
m-90 -49 c3 -5 2 -12 -3 -15 -5 -3 -9 1 -9 9 0 17 3 19 12 6z m95 -12 c0 -5
-7 -9 -15 -9 -15 0 -20 12 -9 23 8 8 24 -1 24 -14z m-195 -49 c3 -5 1 -10 -4
-10 -6 0 -11 5 -11 10 0 6 2 10 4 10 3 0 8 -4 11 -10z m195 -20 c0 -5 -7 -10
-15 -10 -8 0 -15 5 -15 10 0 6 7 10 15 10 8 0 15 -4 15 -10z m-393 -52 c-3 -8
-6 -5 -6 6 -1 11 2 17 5 13 3 -3 4 -12 1 -19z m295 -10 c-15 -15 -26 -4 -18
18 5 13 9 15 18 6 9 -9 9 -15 0 -24z m-192 12 c0 -5 -5 -10 -11 -10 -5 0 -7 5
-4 10 3 6 8 10 11 10 2 0 4 -4 4 -10z m207 -78 c9 -15 8 -19 -5 -19 -34 -2
-45 6 -32 22 16 20 23 19 37 -3z m-387 -13 c0 -5 -7 -9 -15 -9 -9 0 -12 6 -9
15 6 15 24 11 24 -6z m290 0 c0 -5 -9 -9 -20 -9 -17 0 -19 2 -8 14 13 14 28
12 28 -5z m-195 1 c-3 -5 -13 -10 -21 -10 -8 0 -14 5 -14 10 0 6 9 10 21 10
11 0 17 -4 14 -10z m90 0 c-3 -5 -10 -10 -16 -10 -5 0 -9 5 -9 10 0 6 7 10 16
10 8 0 12 -4 9 -10z m-185 -82 c0 -5 -6 -8 -14 -8 -8 0 -13 8 -11 18 2 9 4 19
4 22 2 7 21 -23 21 -32z m194 -10 c-3 -5 -13 -8 -22 -8 -13 0 -14 2 -4 8 7 5
10 16 6 28 -6 18 -6 18 9 -1 8 -11 13 -23 11 -27z m-104 7 c0 -8 -4 -15 -10
-15 -5 0 -10 7 -10 15 0 8 5 15 10 15 6 0 10 -7 10 -15z m197 -2 c3 -7 -4 -9
-16 -6 -12 3 -18 9 -15 15 7 11 26 6 31 -9z m-295 -55 c-9 -9 -12 -7 -12 12 0
19 3 21 12 12 9 -9 9 -15 0 -24z m292 13 c3 -5 -1 -14 -9 -21 -13 -10 -15 -9
-15 9 0 21 14 28 24 12z m-104 -16 c0 -8 -2 -15 -4 -15 -2 0 -6 7 -10 15 -3 8
-1 15 4 15 6 0 10 -7 10 -15z m-180 -45 c0 -11 -4 -20 -10 -20 -5 0 -10 9 -10
20 0 11 5 20 10 20 6 0 10 -9 10 -20z m90 0 c0 -11 -4 -20 -10 -20 -5 0 -10 9
-10 20 0 11 5 20 10 20 6 0 10 -9 10 -20z m100 10 c0 -5 -7 -10 -15 -10 -8 0
-15 5 -15 10 0 6 7 10 15 10 8 0 15 -4 15 -10z m0 -40 c0 -5 -7 -10 -15 -10
-8 0 -15 5 -15 10 0 6 7 10 15 10 8 0 15 -4 15 -10z m-105 -20 c3 -5 -1 -10
-10 -10 -9 0 -13 5 -10 10 3 6 8 10 10 10 2 0 7 -4 10 -10z m-89 -37 c-6 -14
-9 -15 -16 -4 -11 19 -1 46 13 32 5 -5 7 -18 3 -28z m98 8 c3 -5 -1 -12 -10
-15 -20 -8 -29 -1 -19 13 8 13 22 14 29 2z m10 -43 c-3 -4 -15 -8 -27 -8 -15
0 -18 3 -9 8 17 11 43 11 36 0z m-107 -40 c-1 -18 -6 -32 -12 -30 -5 1 -10 7
-9 12 1 6 2 19 3 30 2 34 19 22 18 -12z"/>
<path d="M2156 10224 c-4 -9 -2 -13 5 -8 6 4 15 0 20 -7 6 -10 9 -11 9 -1 0 6
8 12 18 12 14 0 15 2 2 10 -22 15 -47 12 -54 -6z"/>
<path d="M4768 10233 c7 -3 16 -2 19 1 4 3 -2 6 -13 5 -11 0 -14 -3 -6 -6z"/>
<path d="M4845 10230 c-163 -18 -301 -75 -451 -188 -65 -49 -103 -71 -130 -74
-43 -6 -91 -25 -144 -58 -19 -12 -27 -15 -18 -7 10 7 16 16 13 19 -3 2 18 30
45 60 28 31 50 59 50 62 0 13 -90 5 -160 -15 -141 -39 -273 -128 -369 -249
l-36 -45 -100 -1 c-129 -1 -182 -22 -224 -89 -27 -42 -30 -45 -43 -28 -7 10
-21 24 -30 32 -38 29 -86 -33 -109 -138 -8 -40 -16 -54 -35 -61 -13 -5 -44
-40 -68 -79 -25 -38 -60 -81 -79 -95 -36 -28 -80 -113 -92 -178 l-7 -38 -40
50 c-22 28 -46 50 -54 50 -8 0 -34 -20 -59 -44 -58 -58 -79 -126 -79 -258 -1
-82 -3 -98 -16 -98 -9 0 -44 -9 -78 -21 -124 -42 -208 -156 -254 -345 -17 -72
-21 -125 -23 -276 -2 -153 -5 -191 -17 -205 -24 -27 -68 -120 -95 -197 -78
-230 -125 -769 -103 -1168 14 -251 33 -385 75 -522 18 -61 32 -112 31 -114 -2
-1 -20 5 -42 15 -24 10 -65 16 -106 16 -156 0 -261 -105 -320 -318 -18 -69
-21 -107 -22 -270 -1 -275 20 -422 90 -634 93 -279 188 -455 288 -531 44 -34
49 -41 53 -86 7 -88 63 -168 146 -211 47 -23 59 -25 135 -20 l84 5 -6 -327
c-3 -179 -9 -368 -12 -419 l-5 -92 83 -88 c46 -48 99 -107 118 -132 19 -24 86
-103 148 -174 61 -70 112 -132 112 -136 0 -4 -31 -36 -69 -69 -132 -117 -209
-239 -245 -387 -14 -56 -23 -74 -41 -82 -68 -31 -229 -150 -297 -219 -89 -89
-134 -147 -225 -285 -35 -54 -73 -104 -86 -112 -26 -17 -97 -48 -327 -144 -91
-38 -265 -113 -387 -166 -213 -92 -305 -126 -178 -66 56 26 58 29 28 29 -17 1
-33 -5 -36 -11 -6 -17 -43 5 -39 23 8 32 7 77 -1 72 -5 -3 -6 4 -2 16 5 15 2
21 -9 21 -9 0 -16 5 -16 10 0 6 5 10 12 10 23 0 1 10 -35 15 -42 7 -49 -5 -12
-25 30 -16 24 -29 -11 -22 -16 3 -21 7 -14 12 9 6 9 9 1 11 -7 3 -13 14 -14
27 0 12 -6 21 -12 21 -26 -3 -37 2 -32 16 4 8 2 17 -3 20 -9 6 -14 -8 -11 -28
1 -4 -4 -17 -10 -29 -10 -18 -9 -20 5 -15 14 6 15 3 6 -13 -11 -21 -35 -27
-44 -11 -3 4 -3 11 1 15 11 11 12 60 1 73 -7 9 -7 17 1 27 9 10 9 16 1 21 -8
5 -8 11 1 21 9 11 9 14 -1 14 -8 0 -11 3 -7 6 3 4 1 12 -6 20 -35 39 -37 42
-24 47 9 4 9 6 -1 6 -7 1 -11 5 -8 10 4 5 -3 7 -15 4 -13 -4 -17 -8 -9 -13 19
-11 8 -64 -14 -68 -15 -3 -18 1 -14 22 3 15 1 26 -6 26 -6 0 -4 5 4 10 10 7
11 13 5 18 -6 4 -10 18 -9 32 1 22 -19 49 -37 50 -4 0 -6 -16 -4 -35 1 -19 -2
-35 -6 -35 -5 0 -6 -7 -2 -16 5 -14 3 -14 -16 -3 -25 16 -30 69 -6 69 9 0 6 9
-12 26 -19 19 -23 28 -14 34 9 5 6 9 -9 13 -12 3 -19 10 -15 16 3 6 1 11 -6
11 -6 0 -9 -8 -6 -19 3 -12 -1 -22 -11 -26 -18 -7 -21 -5 -26 26 -3 21 -8 24
-39 22 -30 -2 -36 1 -42 24 -8 33 0 39 30 23 14 -7 28 -11 31 -7 4 3 -10 14
-30 23 -34 17 -42 32 -37 71 1 8 -5 10 -16 7 -10 -3 -14 -2 -8 3 17 14 40 47
28 40 -17 -11 -27 11 -13 28 7 8 8 15 4 15 -5 0 -15 9 -21 19 -10 17 -9 18 10
15 13 -2 15 -1 7 2 -8 4 -24 11 -34 17 -16 8 -18 6 -13 -7 7 -17 -8 -21 -37
-10 -12 5 -13 10 -5 26 10 18 9 18 -11 8 -19 -10 -20 -10 -8 9 11 18 10 23 -7
35 -11 8 -22 12 -25 9 -3 -3 1 -8 8 -10 13 -5 17 -24 5 -21 -5 0 -16 -2 -25
-6 -25 -11 -49 0 -46 21 2 10 -2 17 -9 15 -7 -1 -13 3 -13 9 0 7 -10 9 -24 5
-37 -9 -58 3 -52 29 4 17 1 24 -14 28 -27 7 -36 -10 -34 -65 1 -34 -2 -48 -11
-48 -8 0 -17 5 -20 10 -3 6 -2 10 4 10 11 0 9 80 -3 98 -7 12 13 72 25 72 5 0
9 -11 9 -25 0 -14 7 -28 15 -32 23 -8 28 1 20 36 -5 26 -11 31 -35 31 -36 0
-42 9 -34 50 5 24 11 30 25 27 10 -3 20 1 23 8 3 8 -2 11 -13 8 -10 -2 -24 3
-31 12 -12 14 -12 18 1 26 11 7 11 9 0 9 -9 0 -12 9 -9 30 3 16 1 30 -4 30 -5
0 -5 12 -2 28 8 31 8 53 3 140 -2 34 -6 62 -9 62 -3 0 -7 11 -8 26 -1 14 2 23
8 19 6 -3 10 -2 10 3 0 5 -9 12 -20 15 -20 5 -20 0 -20 -1226 1 -1039 3 -1235
15 -1250 13 -18 14 -17 18 10 2 15 3 2 0 -30 -4 -51 -2 -57 15 -57 21 0 31 30
33 99 l2 36 7 -35 c4 -19 8 -29 9 -22 0 6 7 12 15 12 10 0 17 15 20 43 12 92
14 88 9 -21 -6 -108 -5 -112 14 -112 18 0 21 8 26 63 4 34 12 117 18 184 l12
122 40 27 40 26 -7 -33 c-11 -60 -24 -181 -32 -286 -6 -98 -6 -103 13 -103 17
0 20 13 31 158 15 196 22 244 33 217 7 -20 8 -20 8 0 1 11 10 35 21 53 20 32
20 33 1 22 -11 -5 -22 -20 -24 -32 l-4 -23 -2 23 c-1 15 9 28 31 42 18 10 34
18 35 16 2 -2 -1 -23 -6 -47 -10 -42 -23 -171 -36 -347 -6 -82 -6 -82 18 -82
24 0 24 1 31 138 9 162 22 276 26 222 l2 -35 8 30 c4 17 8 46 8 65 l0 35 -9
-30 c-7 -26 -8 -25 -4 10 3 22 5 46 5 52 0 7 19 22 41 34 l42 21 -7 -24 c-16
-58 -36 -226 -42 -365 -7 -150 -6 -153 14 -153 19 0 20 8 26 138 9 180 24 340
36 377 8 25 8 22 4 -20 l-5 -50 15 33 c18 38 41 64 50 55 5 -6 10 19 8 39 -1
3 5 8 12 11 11 4 11 -1 0 -33 -16 -46 -31 -193 -40 -397 -6 -150 -6 -153 14
-153 19 0 21 7 25 83 l3 82 2 -82 2 -83 148 0 149 0 7 168 c3 92 11 207 18
255 9 76 15 94 43 127 18 22 36 36 39 32 4 -3 5 0 2 8 -3 8 4 26 15 40 l21 25
-17 -30 -18 -30 24 20 c13 11 30 26 38 33 12 12 16 11 24 -3 8 -15 16 -5 48
56 21 40 36 75 34 77 -3 3 1 12 8 20 10 13 9 14 -13 2 -14 -7 -36 -22 -50 -34
l-25 -21 20 24 c17 19 103 71 119 71 3 0 -11 -24 -32 -53 -20 -30 -50 -81 -66
-115 -16 -34 -34 -58 -39 -55 -6 3 -7 1 -3 -5 4 -6 0 -25 -9 -43 -9 -17 -14
-33 -12 -35 7 -7 83 100 155 218 64 103 91 129 168 158 l26 10 -27 -31 c-46
-55 -146 -272 -131 -286 3 -3 15 10 26 30 18 30 25 35 52 32 17 -3 33 -7 36
-10 3 -3 12 5 19 17 l14 23 -7 -25 c-4 -14 -9 -32 -11 -40 -9 -31 47 46 92
126 26 46 51 82 56 78 5 -3 7 1 4 8 -2 7 15 46 38 87 31 55 49 76 68 82 l27 7
-34 -57 c-47 -79 -107 -214 -93 -209 6 2 42 53 79 113 91 148 119 186 155 206
l30 18 -47 -95 c-77 -159 -174 -461 -154 -481 10 -11 15 0 65 133 52 139 161
387 168 380 2 -2 -6 -24 -19 -50 -15 -31 -19 -49 -12 -56 7 -7 16 7 28 40 10
28 20 49 22 47 2 -2 -7 -37 -21 -78 -38 -109 -63 -215 -79 -326 -13 -93 -13
-99 5 -125 10 -15 19 -31 19 -36 0 -9 -14 -42 -96 -221 -14 -30 -23 -60 -20
-68 3 -8 1 -11 -4 -8 -10 6 -14 -7 -11 -32 1 -7 -10 -35 -24 -63 l-25 -50 34
0 c19 0 38 5 42 12 5 7 3 8 -5 3 -10 -6 -11 -3 -2 14 7 11 14 21 17 21 3 0 2
-5 -1 -11 -7 -10 21 -38 37 -39 5 0 55 95 113 211 59 116 111 209 117 207 6
-2 23 -53 38 -114 15 -60 44 -153 65 -206 l38 -98 67 0 68 0 -24 74 c-26 82
-47 199 -65 356 -15 138 -6 340 26 555 36 249 42 293 49 369 6 59 5 68 -9 63
-11 -5 -15 1 -16 21 l-1 27 -9 -25 c-7 -21 -8 -19 -4 10 14 93 136 264 217
305 29 14 30 14 16 -2 -46 -54 -31 -55 21 -2 24 24 46 37 52 33 7 -4 9 -3 5 4
-3 6 -2 13 2 16 5 3 12 -47 16 -112 8 -141 45 -404 91 -642 37 -195 61 -385
70 -564 6 -120 21 -219 55 -356 10 -41 21 -87 24 -102 5 -23 12 -28 36 -28 17
0 30 2 30 4 0 2 -16 65 -35 140 -55 213 -85 411 -90 576 -2 80 -10 174 -18
210 -36 156 -77 563 -76 750 1 115 14 286 17 232 4 -47 27 -14 44 62 10 43 34
110 54 149 36 73 121 192 168 237 l27 24 37 -39 c20 -22 26 -30 14 -20 l-24
20 3 -36 c3 -30 -4 -47 -37 -90 -61 -81 -82 -119 -99 -184 -36 -141 -7 -347
90 -635 47 -138 116 -395 205 -760 56 -228 93 -361 147 -528 l36 -112 179 0
c98 0 178 2 178 5 0 3 -26 58 -59 123 -123 245 -231 516 -314 787 -83 269 -80
238 -81 732 l-1 441 50 -46 c90 -84 124 -112 134 -112 5 0 23 -14 40 -31 17
-17 31 -25 31 -19 0 28 19 -4 25 -43 12 -76 211 -658 281 -822 95 -224 283
-595 477 -942 39 -71 42 -73 79 -73 21 0 38 3 38 8 -1 4 -53 104 -116 222
-192 359 -388 762 -462 948 -59 149 -156 435 -203 600 -16 55 -6 63 32 26 24
-23 32 -26 38 -15 7 11 13 6 26 -18 10 -20 22 -31 30 -27 7 2 16 -2 19 -10 3
-8 12 -14 20 -14 7 0 17 -7 20 -16 5 -13 9 -14 21 -4 10 8 15 9 15 2 0 -6 7
-9 15 -6 8 4 24 -6 38 -22 l24 -28 13 23 12 23 19 -31 c19 -32 42 -40 55 -20
4 7 15 1 29 -17 18 -23 25 -26 37 -16 12 9 19 7 38 -13 24 -26 50 -33 50 -15
0 6 14 0 31 -12 22 -17 32 -19 38 -10 5 9 14 4 31 -15 21 -24 25 -25 28 -11 3
14 7 16 23 8 10 -6 19 -8 19 -4 0 3 7 1 15 -6 8 -7 24 -10 35 -7 10 3 25 -2
31 -10 7 -8 21 -12 30 -10 10 3 27 -2 39 -10 11 -8 27 -12 34 -10 8 3 17 3 21
-1 4 -4 28 -7 53 -8 26 0 60 -7 76 -15 24 -11 30 -11 34 -1 3 10 9 9 24 -4 15
-14 23 -16 36 -7 13 8 24 7 46 -4 24 -12 34 -13 49 -4 15 10 22 9 38 -5 18
-16 20 -16 37 -1 17 15 20 15 42 0 17 -12 25 -14 28 -4 3 9 7 9 18 0 10 -8 18
-8 27 0 10 8 17 7 25 -1 10 -10 17 -10 32 0 12 7 21 8 25 2 9 -15 112 -13 118
3 3 9 7 9 20 -2 13 -10 20 -11 31 -2 11 9 20 9 35 2 25 -14 27 -14 45 4 13 13
19 14 36 3 16 -10 22 -10 28 -1 5 8 13 9 22 3 10 -6 20 -4 31 6 14 13 21 13
37 3 18 -11 24 -10 42 6 18 16 23 17 30 5 8 -12 13 -13 29 -3 10 6 28 9 38 7
13 -4 23 0 27 11 5 14 9 15 21 5 15 -12 55 -5 55 10 0 5 15 6 34 3 19 -3 36
-1 40 5 4 6 13 9 21 5 9 -3 22 0 30 7 8 7 38 14 67 16 29 3 57 9 62 14 6 6 20
10 32 10 13 0 26 5 30 11 3 6 14 9 24 6 10 -3 32 3 48 13 17 10 39 16 50 13
12 -3 22 1 25 11 4 9 15 16 26 16 11 0 23 5 27 11 3 6 16 8 29 5 15 -4 28 1
40 13 9 11 23 17 30 15 13 -5 40 17 47 38 4 10 8 10 21 0 14 -12 21 -9 53 23
l37 37 -7 -35 c-12 -62 -112 -369 -161 -492 -26 -66 -99 -230 -163 -365 -157
-334 -402 -863 -402 -867 0 -1 17 -3 38 -3 l39 0 80 163 c45 89 110 225 146
302 36 77 102 217 147 310 45 94 106 224 135 290 63 144 172 475 211 638 20
88 30 114 37 102 8 -15 10 -15 27 0 10 9 24 30 30 46 11 26 14 28 25 12 12
-15 14 -15 26 5 8 12 20 22 27 22 7 0 25 12 40 27 15 16 39 34 55 40 15 7 32
24 37 38 6 15 15 23 23 19 9 -3 24 7 37 23 l23 28 -7 -70 c-20 -209 -26 -323
-26 -538 0 -275 -9 -330 -89 -568 -68 -203 -141 -379 -256 -624 -26 -55 -65
-137 -86 -183 l-38 -82 161 2 161 3 25 70 c13 39 46 153 72 255 46 177 85 296
131 398 17 39 33 55 95 95 41 26 80 47 87 47 7 0 17 4 22 9 6 4 31 11 58 15
43 5 47 4 47 -15 0 -68 -112 -321 -240 -544 -32 -55 -85 -153 -120 -217 l-62
-118 706 0 706 0 1 128 c1 79 4 118 9 102 5 -17 8 -19 9 -7 1 9 6 17 12 17 6
0 9 7 5 15 -3 8 -3 15 -1 15 3 0 25 -40 50 -90 25 -49 50 -90 56 -90 12 0 6
71 -10 112 -6 17 -7 29 -1 33 6 4 6 14 -1 28 -8 15 -8 19 0 12 6 -6 44 -69 85
-140 l74 -130 811 -3 811 -2 0 273 c0 205 -3 276 -12 286 -11 11 -10 13 0 7
10 -6 12 85 12 458 -1 354 -4 466 -13 470 -9 3 -9 6 0 13 15 10 10 66 -6 71
-6 2 -11 8 -11 14 0 6 6 8 14 5 21 -8 14 50 -9 67 -18 14 -18 15 -2 16 17 0
25 30 8 30 -5 0 -11 6 -14 14 -4 10 0 12 14 9 22 -6 26 15 4 23 -13 5 -13 9
-3 22 8 10 8 13 2 9 -7 -4 -15 0 -18 8 -3 9 1 18 9 21 18 7 20 30 3 40 -7 5
-8 3 -3 -7 7 -11 5 -11 -9 1 -12 9 -14 16 -7 18 9 3 7 11 -4 28 -15 23 -10 30
18 25 12 -2 8 17 -5 21 -6 2 -11 18 -11 36 0 20 -5 32 -14 32 -9 0 -12 8 -9
25 3 16 0 25 -8 25 -9 0 -12 -12 -9 -42 2 -24 4 -47 4 -53 -3 -29 -10 -91 -11
-95 -1 -3 -2 -8 -1 -12 3 -18 -17 -6 -27 16 -7 17 -7 27 1 35 6 6 7 11 2 11
-6 0 -4 4 4 9 11 7 10 11 -6 19 -35 19 -59 5 -61 -36 -3 -45 -3 -45 -37 -36
-15 4 -23 9 -18 13 4 3 14 14 22 23 12 16 11 18 -8 18 -12 0 -19 -5 -16 -10 3
-6 -1 -10 -9 -10 -24 0 -44 -50 -41 -102 3 -45 2 -48 -21 -48 -16 0 -23 4 -18
11 4 8 -1 9 -17 4 -35 -11 -39 -17 -42 -66 -1 -24 -9 -52 -17 -61 -15 -18 -36
-25 -26 -9 3 5 -12 4 -34 -1 -38 -10 -39 -11 -23 -34 8 -13 11 -24 5 -24 -6 0
-9 -14 -7 -32 3 -17 0 -38 -6 -45 -9 -10 -8 -13 1 -13 10 0 10 -3 0 -15 -9
-10 -9 -15 -1 -15 17 0 13 -27 -5 -34 -9 -3 -17 -6 -19 -6 -2 0 -2 28 -1 63 3
59 2 63 -20 62 -12 0 -26 -4 -31 -9 -5 -6 -2 -6 7 -1 13 8 13 6 2 -8 -8 -9
-11 -21 -8 -26 10 -15 -13 -24 -29 -11 -14 12 -20 7 -16 -14 1 -5 -4 -4 -12 2
-14 12 -27 7 -27 -10 0 -5 6 -6 13 -2 8 5 7 2 -2 -9 -8 -10 -11 -20 -8 -24 13
-12 -14 -42 -40 -46 l-28 -4 30 -2 c26 -1 30 -5 32 -31 3 -40 -31 -61 -54 -33
-8 10 -12 12 -8 5 4 -7 0 -12 -9 -12 -15 0 -20 -11 -17 -38 1 -6 -6 -12 -16
-13 -12 0 -9 -5 11 -13 22 -10 25 -14 12 -19 -9 -4 -13 -13 -10 -22 4 -8 1
-22 -6 -30 -10 -11 -10 -15 0 -15 6 0 10 -8 8 -17 -4 -23 -33 -23 -32 0 1 9
-3 17 -9 17 -7 0 -7 4 1 12 7 7 11 21 11 32 -1 17 -2 18 -6 4 -2 -10 -11 -18
-18 -18 -20 0 -45 -52 -38 -79 3 -11 -1 -28 -8 -37 -10 -13 -10 -17 2 -24 11
-8 11 -12 -6 -24 -24 -19 -32 -19 -41 -4 -4 7 -3 8 4 4 7 -4 12 -2 12 3 0 17
-18 13 -29 -6 -6 -11 -11 -13 -11 -5 0 7 -5 10 -10 7 -6 -4 -8 -11 -5 -16 4
-5 -2 -9 -12 -9 -14 -1 -13 -4 7 -15 69 -39 -41 2 -340 128 -124 52 -298 124
-387 160 -89 36 -173 72 -186 79 -26 14 -134 141 -201 236 -105 149 -276 290
-436 361 l-76 33 -34 100 c-41 122 -118 243 -230 361 l-80 85 57 64 c79 87
133 154 173 212 18 28 62 85 97 128 96 118 95 116 91 367 -1 119 -2 300 0 402
l2 186 63 -14 c75 -18 150 -12 203 15 85 44 143 137 144 229 0 46 4 57 44 103
82 96 149 245 220 493 57 199 81 416 73 676 -7 258 -47 383 -151 478 -80 74
-160 90 -263 54 -29 -10 -53 -15 -53 -12 0 3 18 69 41 146 82 286 115 622 99
1013 -16 400 -42 594 -106 777 -19 55 -39 134 -45 175 -13 101 -41 198 -107
370 -63 166 -114 256 -192 343 -54 59 -55 62 -55 121 -1 75 -34 142 -109 218
-45 46 -151 108 -184 108 -7 0 -26 23 -43 50 -20 33 -47 59 -77 77 -26 15 -49
28 -51 29 -2 2 8 13 22 26 67 61 39 92 -109 119 -59 10 -110 22 -113 25 -3 4
11 4 33 1 21 -3 36 -3 32 0 -3 4 7 12 23 19 53 22 119 168 71 155 -8 -2 -71
-5 -139 -7 -140 -5 -133 -14 -59 76 44 54 108 159 108 177 0 22 -23 14 -60
-21 l-35 -34 -139 43 c-231 72 -383 92 -761 102 -212 5 -220 6 -237 28 -20 26
-92 57 -223 97 -49 15 -80 27 -67 27 13 1 20 5 17 11 -4 6 -11 8 -16 5 -5 -4
-9 3 -9 14 0 11 -9 25 -19 31 -23 12 -575 12 -686 0z m453 -27 c-21 -2 -55 -2
-75 0 -21 2 -4 4 37 4 41 0 58 -2 38 -4z m105 -10 c-7 -2 -19 -2 -25 0 -7 3
-2 5 12 5 14 0 19 -2 13 -5z m64 -9 c-3 -3 -12 -4 -19 -1 -8 3 -5 6 6 6 11 1
17 -2 13 -5z m50 -10 c-3 -3 -12 -4 -19 -1 -8 3 -5 6 6 6 11 1 17 -2 13 -5z
m-976 -751 c-12 -20 -14 -14 -5 12 4 9 9 14 11 11 3 -2 0 -13 -6 -23z m-20
-50 c-12 -20 -14 -14 -5 12 4 9 9 14 11 11 3 -2 0 -13 -6 -23z m779 -133 c-6
-11 -13 -20 -16 -20 -2 0 0 9 6 20 6 11 13 20 16 20 2 0 0 -9 -6 -20z m-854
-106 c-8 -32 -15 -51 -15 -42 -1 23 22 123 26 111 2 -5 -3 -36 -11 -69z m819
46 c-9 -16 -18 -30 -21 -30 -2 0 2 14 11 30 9 17 18 30 21 30 2 0 -2 -13 -11
-30z m-167 -45 c-12 -24 -23 -43 -26 -41 -4 5 36 86 43 86 3 0 -5 -20 -17 -45z
m-671 -97 c-3 -7 -5 -2 -5 12 0 14 2 19 5 13 2 -7 2 -19 0 -25z m-1524 -465
c-23 -2 -64 -2 -90 0 -26 2 -7 3 42 3 50 0 71 -1 48 -3z m-402 -116 l-24 -22
19 27 c10 14 21 24 23 22 3 -3 -6 -15 -18 -27z m1742 17 c105 -7 107 -7 153
-46 30 -25 50 -35 54 -28 5 7 11 6 20 -5 21 -25 83 -54 132 -61 26 -4 56 -18
77 -36 39 -35 48 -31 27 11 -9 16 -16 34 -16 39 0 17 175 -54 227 -92 53 -38
103 -62 147 -70 14 -3 38 -14 51 -25 l26 -19 22 22 c102 102 538 249 867 292
161 21 411 14 548 -16 123 -26 257 -72 363 -125 93 -46 308 -189 323 -214 5
-9 22 -28 38 -43 20 -18 24 -28 16 -32 -8 -4 -9 -8 -3 -11 30 -16 40 -27 28
-32 -19 -7 -16 -21 5 -28 25 -7 46 -52 29 -59 -8 -3 -2 -13 15 -28 l28 -23
-22 -14 -22 -14 23 -18 c18 -15 19 -19 7 -19 -18 0 -22 -15 -6 -25 6 -4 8 -10
5 -15 -3 -5 -1 -19 5 -30 9 -18 8 -20 -15 -20 -31 0 -30 -28 5 -65 19 -21 21
-25 7 -25 -22 0 -21 -8 1 -33 9 -11 12 -17 5 -14 -15 10 -28 -12 -15 -25 6 -6
8 -16 6 -22 -3 -7 4 -20 15 -30 11 -10 17 -25 14 -37 -3 -10 -1 -25 5 -32 5
-6 10 -45 11 -86 1 -41 5 -79 8 -84 3 -4 -4 -11 -16 -14 -20 -5 -20 -6 -3 -35
16 -28 16 -30 -1 -43 -18 -13 -17 -15 5 -57 14 -27 23 -61 23 -90 0 -27 -1
-48 -3 -48 -2 0 -12 5 -23 10 -32 18 -34 -14 -4 -54 l26 -34 -16 -117 c-9 -64
-14 -124 -11 -132 4 -10 2 -13 -6 -10 -80 30 -77 16 26 -108 105 -128 149
-218 165 -345 6 -47 14 -96 17 -108 2 -13 1 -21 -4 -18 -19 12 -309 46 -448
52 l-152 7 -7 66 c-4 36 -12 96 -19 134 -7 37 -9 67 -4 67 5 0 21 -8 35 -17
19 -12 28 -14 30 -6 3 8 12 9 29 3 34 -13 30 1 -9 27 -142 97 -346 129 -764
120 -261 -5 -404 -21 -462 -52 -14 -8 -50 -34 -79 -58 -32 -26 -61 -43 -71
-40 -40 10 -72 -16 -103 -84 l-30 -67 22 -18 c12 -9 49 -23 83 -29 l62 -13
-133 -32 c-73 -18 -145 -40 -158 -49 -29 -19 -54 -71 -54 -111 0 -21 -4 -25
-17 -20 -10 4 -67 12 -128 18 -122 11 -294 5 -397 -16 l-68 -14 0 39 c0 59
-30 84 -135 114 -49 15 -142 37 -205 49 l-115 23 95 6 c119 7 214 35 218 63 4
29 -59 148 -82 152 -12 3 -16 0 -11 -8 4 -6 4 -18 1 -27 -5 -12 -23 0 -79 55
-80 77 -89 81 -252 108 -120 20 -476 22 -630 4 -224 -26 -378 -76 -465 -149
l-35 -30 60 23 c33 13 75 27 94 31 30 7 33 5 27 -11 -16 -40 -36 -151 -36
-200 0 -61 -5 -64 -115 -64 -100 0 -269 -17 -418 -41 -70 -12 -130 -19 -133
-17 -2 3 0 44 5 91 18 153 78 270 214 412 48 51 87 95 87 98 0 3 -17 1 -37 -4
-21 -4 -38 -7 -39 -6 -1 1 -5 38 -8 82 -4 44 -10 98 -15 120 -7 36 -4 45 26
86 18 26 33 50 33 54 0 4 -13 5 -29 3 -16 -2 -28 1 -28 6 0 34 -4 48 -16 43
-7 -2 0 21 17 54 23 47 26 62 17 73 -8 9 -10 28 -5 50 3 20 2 36 -2 36 -11 0
-2 190 10 209 5 8 4 16 -4 21 -9 6 -7 11 9 20 17 9 20 14 11 25 -9 11 -6 16
12 26 l23 13 -23 5 -24 6 21 27 c25 31 26 38 6 38 -8 0 -15 4 -15 9 0 5 7 14
15 21 8 7 15 21 15 33 0 17 -5 19 -36 14 -36 -6 -36 -6 -18 15 11 11 17 29 16
41 -3 12 5 27 19 37 23 18 19 40 -9 40 -13 0 -12 3 6 16 12 8 20 20 16 25 -3
6 2 19 12 30 16 17 16 19 1 19 -26 0 -20 17 9 24 17 5 24 12 20 21 -2 7 -1 15
4 17 5 2 10 10 12 18 2 8 16 23 32 33 21 13 26 21 17 27 -9 5 -4 14 19 30 17
12 29 25 26 28 -3 3 9 14 27 25 17 10 55 37 83 58 28 21 112 70 188 109 292
149 558 197 949 174z m-1896 -156 c-3 -8 -6 -5 -6 6 -1 11 2 17 5 13 3 -3 4
-12 1 -19z m-91 -635 c-21 -69 -58 -247 -77 -366 -24 -156 -45 -211 -34 -87 5
62 29 222 52 352 3 15 9 25 14 22 5 -3 9 3 9 14 0 29 21 82 32 82 5 0 7 -8 4
-17z m214 -238 c-34 -50 -37 -52 -37 -30 0 8 4 12 8 10 7 -5 18 14 15 27 -1 6
33 37 42 38 2 0 -11 -20 -28 -45z m-214 -132 c-25 -83 -77 -292 -87 -352 -7
-41 -15 -69 -17 -63 -10 31 82 432 100 432 5 0 7 -8 4 -17z m3452 -1270 c-29
-7 -20 -24 10 -18 15 3 5 -3 -23 -13 -85 -32 -151 -70 -178 -101 -20 -24 -26
-27 -31 -15 -3 9 -4 26 -1 40 3 13 7 35 10 48 5 24 33 36 135 55 47 9 109 12
78 4z m362 -126 c-239 -99 -316 -203 -355 -479 -6 -44 -4 -48 17 -53 13 -3 61
1 108 9 130 22 821 12 1064 -15 99 -11 192 -23 208 -26 40 -8 35 13 -9 37 -36
19 -37 20 -8 14 17 -3 42 -10 58 -14 15 -5 27 -6 27 -2 0 17 -47 34 -111 39
l-69 6 0 63 c0 77 -30 163 -89 257 -42 65 -121 147 -142 147 -7 0 -10 3 -6 6
10 10 121 -18 183 -47 42 -20 83 -52 134 -104 40 -42 75 -74 77 -71 20 20 -65
159 -126 208 l-26 20 35 -7 c219 -46 341 -117 385 -222 44 -104 38 -290 -14
-496 -55 -214 -101 -300 -187 -348 -64 -37 -245 -84 -399 -106 -167 -23 -485
-22 -620 2 -327 57 -441 151 -539 446 -49 148 -68 248 -69 374 -2 119 12 168
70 243 42 56 189 109 358 131 104 13 105 12 45 -12z m-1795 -17 c165 -27 222
-52 264 -119 78 -122 80 -361 6 -621 -57 -197 -131 -296 -269 -361 -244 -114
-835 -117 -1165 -5 -131 44 -186 101 -238 245 -81 222 -95 478 -33 618 26 60
105 140 170 173 63 32 202 66 309 76 l73 7 -74 -74 c-109 -108 -158 -221 -158
-366 l0 -43 -52 -1 c-29 -1 -64 -5 -78 -9 -25 -8 -25 -8 4 -9 29 -1 29 -1 10
-22 l-18 -20 89 6 c50 4 126 11 170 17 44 5 266 12 494 15 355 4 430 3 533
-12 90 -13 123 -14 131 -6 9 9 9 14 0 19 -6 4 -14 36 -18 72 -22 220 -111 346
-303 427 -56 23 -56 24 -17 19 22 -3 99 -15 170 -26z m2265 19 c173 -21 279
-98 360 -262 41 -83 61 -178 42 -205 -7 -10 -47 -10 -203 -1 -106 6 -195 11
-196 12 -1 1 5 27 13 57 60 223 -116 399 -334 335 -118 -35 -192 -134 -192
-254 1 -36 7 -84 15 -106 8 -22 15 -41 15 -41 0 -1 -55 -4 -122 -6 -68 -3
-136 -11 -152 -17 -16 -6 -31 -9 -34 -6 -11 11 19 148 44 201 33 70 133 170
210 211 143 76 341 106 534 82z m-2565 -24 c107 -22 217 -76 276 -135 74 -74
129 -199 129 -294 0 -35 -2 -38 -22 -31 -13 4 -72 9 -131 12 -95 5 -107 7
-101 22 4 9 9 55 12 104 4 83 3 91 -28 153 -21 44 -45 75 -72 94 -119 86 -323
51 -399 -68 -52 -83 -61 -150 -31 -238 l18 -51 -136 -7 c-74 -4 -168 -9 -207
-13 l-73 -6 0 75 c0 66 4 84 35 145 63 126 178 219 311 253 57 14 325 5 419
-15z m-1873 -35 c52 -15 97 -56 121 -110 11 -25 28 -55 38 -68 41 -53 68 -170
75 -328 6 -147 6 -152 -14 -163 -34 -18 -91 -100 -107 -154 -17 -57 -15 -63
53 -146 49 -61 75 -80 109 -81 15 0 23 -8 27 -27 8 -41 23 -245 37 -516 11
-206 11 -240 -2 -248 -25 -17 -145 -6 -176 17 -56 42 -68 69 -67 152 1 62 8
97 39 180 20 57 35 106 31 109 -3 3 -16 3 -30 -1 -34 -8 -79 -87 -102 -177
-10 -38 -21 -69 -25 -69 -12 0 -99 102 -126 148 -25 42 -133 277 -133 289 0 3
10 -7 22 -23 51 -67 231 -274 238 -274 4 0 13 7 20 15 20 24 -33 102 -252 378
l-78 98 0 102 c0 146 17 353 35 422 9 33 29 88 45 123 16 34 25 62 20 62 -20
0 -71 -55 -95 -103 -14 -29 -31 -85 -39 -125 -8 -40 -17 -76 -21 -80 -13 -12
3 241 21 325 29 144 73 216 156 257 56 28 116 33 180 16z m368 -94 c0 -96 -2
-104 -20 -109 -12 -3 -20 -1 -19 6 1 7 0 55 -2 107 l-3 95 -5 -109 c-4 -75
-10 -111 -18 -114 -10 -3 -13 23 -13 106 0 60 3 112 7 115 3 4 21 7 40 7 l33
0 0 -104z m5779 69 c51 -26 110 -103 130 -170 27 -85 41 -197 41 -316 0 -110
-14 -134 -23 -36 -9 106 -72 237 -114 237 -17 0 -18 4 28 -125 30 -86 32 -98
41 -325 6 -129 10 -244 9 -254 0 -23 -36 -76 -176 -261 -59 -77 -109 -153
-112 -168 l-6 -29 -20 31 c-23 37 -74 68 -89 53 -6 -6 -1 -27 15 -58 47 -93
73 -201 68 -286 -1 -36 -53 -94 -97 -108 -45 -15 -116 -15 -144 0 -21 11 -22
17 -16 69 3 31 11 135 16 231 5 96 17 246 27 333 l17 157 32 0 c38 0 87 37
111 84 9 17 24 37 34 44 55 38 -17 207 -102 242 l-31 13 7 111 c4 61 11 133
16 159 9 51 96 247 109 247 4 0 11 20 14 44 7 46 25 68 66 85 38 15 117 13
149 -4z m-4495 -96 c-10 -12 -18 -31 -16 -44 4 -29 -9 -38 -39 -27 -21 8 -20
10 22 50 45 44 65 57 33 21z m304 -77 c3 -16 -2 -22 -17 -22 -26 0 -36 17 -20
36 16 19 33 13 37 -14z m2107 5 c25 -19 10 -37 -31 -37 -37 0 -39 2 -24 31 13
22 29 24 55 6z m-2428 -37 c3 -10 2 -11 -4 -3 -4 6 -22 13 -38 16 -27 4 -27 5
4 3 21 0 36 -7 38 -16z m339 -50 c2 -34 1 -34 -3 -3 -3 23 -10 33 -26 37 -18
3 -18 4 3 3 21 -2 25 -7 26 -37z m2089 10 c-2 -31 -41 -83 -55 -75 -11 7 -21
70 -14 89 4 10 18 16 39 16 30 0 32 -2 30 -30z m-900 -40 c54 -12 70 -35 90
-127 9 -43 52 -188 95 -323 43 -135 100 -321 126 -415 29 -106 60 -194 82
-235 86 -159 94 -178 99 -244 7 -80 -10 -146 -47 -186 -23 -25 -36 -30 -74
-30 -70 0 -144 -33 -266 -120 -134 -95 -182 -119 -257 -130 -133 -18 -250 25
-388 145 -118 102 -146 115 -238 115 -83 0 -94 7 -123 75 -34 83 8 197 117
318 38 42 69 89 85 128 47 116 288 838 315 942 13 54 38 76 97 88 55 10 241
10 287 -1z m1215 -70 c0 -5 -8 -10 -17 -10 -15 0 -16 2 -3 10 19 12 20 12 20
0z m-3880 -185 c105 -354 157 -488 216 -554 111 -124 359 -200 749 -231 238
-19 508 3 691 56 102 29 158 57 240 117 l62 45 -33 -104 c-25 -78 -43 -116
-71 -150 -70 -83 -116 -148 -140 -198 -65 -138 -26 -288 89 -342 29 -13 50
-24 47 -24 -3 0 -34 6 -70 14 -68 14 -122 10 -265 -19 -38 -8 -99 -17 -135
-20 -36 -4 -78 -9 -95 -11 -27 -5 -28 -4 -12 9 9 8 17 17 17 21 0 12 -17 6
-53 -18 -19 -13 -75 -34 -124 -46 -124 -32 -278 -86 -343 -122 -72 -40 -170
-119 -204 -163 -28 -37 -51 -95 -37 -95 4 0 36 26 72 57 35 32 55 47 45 35
l-19 -22 34 6 34 7 -26 -21 c-15 -12 -35 -39 -46 -59 -11 -21 -45 -79 -77
-130 -61 -97 -92 -174 -101 -244 l-5 -44 31 65 c17 36 34 67 38 70 3 3 12 17
20 33 8 15 18 27 23 27 11 0 11 -1 -13 -54 -11 -26 -19 -51 -17 -57 2 -5 14
15 28 45 14 30 33 57 43 59 14 4 16 2 7 -8 -8 -9 -7 -14 4 -18 16 -6 40 16 29
26 -3 4 1 7 10 7 9 0 15 -8 14 -19 0 -11 -5 -17 -9 -15 -4 3 -5 -2 -2 -10 3
-9 10 -14 14 -11 4 3 10 -2 14 -10 3 -8 1 -15 -4 -15 -6 0 -10 -5 -10 -11 0
-6 7 -8 16 -5 8 3 12 2 9 -4 -3 -6 -14 -10 -23 -11 -11 0 -13 -2 -4 -6 10 -4
10 -8 1 -19 -7 -8 -9 -17 -6 -21 4 -3 2 -12 -4 -20 -6 -7 -8 -13 -4 -13 4 0
14 8 22 18 14 16 14 16 9 0 -3 -10 -1 -18 4 -18 6 0 10 -19 10 -42 0 -23 5
-71 12 -107 12 -74 10 -77 49 72 12 49 28 95 35 102 7 7 10 15 7 19 -13 13 33
103 76 149 47 51 97 83 103 68 2 -5 19 -1 38 9 152 78 198 100 219 100 16 0
48 -23 98 -71 106 -101 212 -150 393 -183 74 -14 189 -37 255 -50 148 -31 333
-46 575 -46 252 0 374 13 645 66 351 69 426 98 551 217 l72 68 50 -30 c43 -25
51 -27 57 -14 4 13 8 14 17 5 7 -7 19 -12 28 -12 9 0 25 -9 35 -20 18 -20 51
-28 40 -10 -3 6 -2 10 3 10 6 0 13 -7 16 -16 3 -8 10 -12 16 -9 5 3 10 1 10
-4 0 -6 9 -11 20 -11 11 0 20 -5 20 -11 0 -6 8 -8 18 -5 9 3 24 1 32 -4 8 -5
11 -10 5 -10 -5 0 1 -6 15 -13 53 -27 124 -197 145 -352 4 -27 11 -57 15 -64
11 -20 27 43 36 132 5 61 8 68 25 64 16 -4 19 0 19 25 0 17 -4 27 -10 23 -6
-3 -10 5 -10 19 0 13 -4 26 -10 28 -14 4 -19 68 -8 100 12 33 19 35 36 8 10
-16 10 -20 0 -21 -7 0 -3 -4 9 -9 13 -5 21 -15 19 -22 -1 -7 -1 -10 1 -5 8 13
21 8 27 -10 6 -22 0 33 -7 64 -4 16 -2 20 9 16 8 -3 13 -12 10 -19 -3 -7 3
-19 12 -26 21 -16 60 -84 42 -73 -8 5 -11 3 -8 -5 6 -19 48 -23 48 -6 0 31
-58 177 -99 249 -24 41 -64 98 -88 126 -25 28 -41 51 -37 51 3 0 38 -23 76
-51 38 -28 71 -49 75 -46 10 11 -17 70 -57 123 -84 111 -219 185 -465 254 -60
17 -126 41 -147 55 -45 30 -73 33 -38 4 l25 -21 -45 6 c-25 3 -74 8 -110 11
-36 3 -81 10 -100 15 -19 5 -80 14 -135 19 -55 6 -126 13 -157 17 -56 7 -58 6
-68 -20 -8 -23 -13 -25 -29 -16 -28 14 -54 13 -45 -2 4 -7 -2 -5 -13 5 l-21
19 38 35 c59 52 84 127 77 229 -7 94 -13 110 -88 229 -48 76 -61 107 -84 200
-15 61 -29 119 -32 130 -4 12 16 -2 49 -36 99 -101 252 -160 503 -194 174 -25
569 -16 745 15 301 53 438 107 531 208 58 63 93 141 144 317 29 100 94 286 94
270 1 -5 -6 -50 -14 -100 -45 -277 -91 -703 -110 -1020 -3 -55 -8 -116 -10
-135 -2 -19 -8 -181 -14 -360 -13 -360 -26 -586 -36 -612 -4 -9 -13 -14 -21
-11 -11 4 -13 -2 -8 -26 4 -20 3 -31 -5 -31 -6 0 -11 -7 -11 -15 0 -9 -6 -12
-15 -9 -11 5 -15 -2 -15 -27 0 -31 -1 -32 -15 -13 -14 18 -14 17 -9 -12 4 -19
1 -34 -5 -38 -6 -4 -11 -18 -11 -31 0 -24 -26 -42 -32 -23 -2 6 -10 8 -16 4
-8 -5 -9 -13 -2 -26 7 -13 6 -19 -6 -24 -9 -3 -21 -3 -27 1 -6 4 -8 0 -4 -10
3 -8 0 -20 -7 -26 -8 -7 -16 -25 -20 -41 -3 -18 -12 -30 -21 -30 -11 0 -15 -6
-11 -18 5 -13 1 -19 -10 -19 -9 0 -19 9 -22 19 -2 10 -8 18 -13 18 -11 0 -11
-3 1 -36 6 -15 8 -36 4 -47 -6 -18 -7 -19 -16 -4 -13 24 -27 21 -21 -3 4 -16
2 -19 -11 -14 -9 3 -16 12 -16 19 0 8 -4 16 -8 19 -4 2 -8 -4 -8 -15 0 -10 3
-19 7 -19 4 0 9 -10 12 -22 6 -23 6 -23 -10 -3 -11 14 -17 16 -20 7 -4 -10 -8
-10 -19 -1 -17 14 -19 -2 -2 -19 9 -9 9 -12 0 -12 -7 0 -12 -6 -12 -14 0 -24
-24 -24 -43 1 -24 30 -44 30 -24 -1 23 -35 8 -41 -25 -9 -36 34 -37 19 -1 -21
16 -17 21 -25 13 -18 -8 6 -20 12 -28 12 -8 0 -28 10 -45 22 -29 21 -28 18 13
-32 l45 -55 -38 33 c-21 17 -42 32 -47 32 -13 0 -1 -31 24 -60 50 -58 47 -62
-7 -12 -32 28 -64 52 -70 52 -7 0 13 -23 44 -50 31 -27 64 -62 74 -77 l18 -28
-21 19 c-12 11 -22 16 -22 12 0 -3 -22 10 -50 29 -56 39 -72 45 -45 15 10 -11
14 -20 10 -20 -5 0 2 -11 15 -25 13 -14 18 -25 12 -25 -8 0 -9 -7 -2 -24 11
-30 1 -41 -17 -18 -14 16 -14 16 -8 -3 12 -34 11 -48 -5 -52 -13 -4 -13 -3 0
6 13 9 13 11 -3 11 -14 0 -16 -5 -11 -25 5 -19 3 -25 -7 -23 -9 2 -14 -6 -14
-22 0 -18 -8 -27 -28 -34 -15 -6 -26 -15 -23 -22 3 -7 -2 -10 -14 -7 -13 4
-21 -4 -30 -31 -8 -24 -16 -33 -26 -29 -8 3 -14 2 -13 -3 5 -30 -4 -36 -17
-11 -19 35 -22 34 -16 -3 3 -18 0 -30 -7 -30 -19 0 -25 -4 -53 -32 -32 -33
-44 -34 -70 -11 -19 17 -19 16 -13 -12 5 -25 4 -27 -5 -12 -20 30 -31 18 -14
-16 17 -32 16 -32 -3 -15 -27 24 -32 23 -28 -9 l3 -26 -20 24 -19 24 6 -50 5
-50 -13 34 c-15 39 -44 58 -34 22 3 -11 1 -21 -4 -21 -5 0 -9 5 -9 10 0 6 -10
10 -21 10 -19 0 -21 -4 -15 -32 5 -28 4 -30 -6 -13 -16 29 -16 29 -33 11 -9
-9 -21 -14 -26 -11 -5 4 -9 1 -9 -5 0 -6 -5 -8 -10 -5 -7 4 -9 -2 -4 -19 7
-31 -10 -35 -26 -6 -12 22 -35 28 -27 7 3 -8 -3 -20 -14 -28 -12 -9 -17 -20
-13 -34 4 -17 2 -17 -15 5 -12 15 -16 27 -9 31 7 4 7 9 -1 13 -6 4 -11 2 -11
-4 0 -6 -5 -8 -10 -5 -6 4 -10 3 -9 -2 3 -21 -14 -51 -27 -46 -9 3 -14 -2 -15
-13 0 -18 -1 -17 -9 1 -8 19 -9 19 -9 -3 -1 -19 -4 -21 -20 -12 -14 7 -21 6
-25 -3 -3 -6 -3 -1 0 12 4 15 2 21 -4 17 -6 -3 -13 2 -15 11 -4 14 -5 13 -6
-4 0 -13 -6 -22 -13 -20 -7 1 -15 -13 -19 -33 -4 -23 -7 -27 -8 -12 0 13 -5
20 -11 17 -5 -3 -10 1 -10 9 0 28 -20 17 -21 -11 0 -16 -3 -22 -6 -15 -4 10
-8 10 -19 1 -11 -9 -14 -8 -14 5 0 28 -20 7 -21 -22 -2 -27 -2 -27 -6 -2 -7
37 -23 49 -23 17 0 -28 -14 -36 -24 -14 -5 10 -7 10 -12 0 -9 -21 -24 -15 -24
10 0 19 -3 18 -22 -13 -27 -43 -40 -53 -50 -37 -4 7 -3 14 2 15 6 2 10 8 10
13 0 6 -4 7 -10 4 -5 -3 -10 -2 -10 4 0 6 -7 8 -15 5 -9 -4 -15 0 -15 7 -1 8
-9 -4 -20 -26 -11 -22 -19 -32 -20 -23 0 23 -20 34 -31 17 -7 -11 -12 -12 -28
-2 -17 11 -21 10 -26 -7 -4 -11 -15 -25 -25 -30 -15 -8 -20 -6 -26 12 -6 21
-7 21 -20 3 -9 -12 -14 -14 -14 -6 0 10 -3 11 -14 2 -11 -9 -15 -9 -19 1 -4
10 -8 10 -16 -2 -9 -13 -11 -12 -11 5 -1 20 -1 20 -16 0 -13 -17 -16 -18 -25
-5 -8 11 -12 12 -16 3 -3 -9 -10 -10 -24 -3 -11 6 -19 7 -19 2 0 -19 -44 -22
-54 -4 -9 15 -11 14 -17 -8 l-7 -25 -1 24 c-1 24 -2 24 -15 6 -8 -11 -12 -24
-9 -29 4 -5 1 -6 -5 -2 -7 4 -12 14 -12 22 0 8 -9 14 -20 14 -11 0 -20 -7 -20
-15 0 -9 -6 -12 -15 -9 -8 4 -12 11 -8 18 4 6 0 5 -9 -2 -14 -11 -18 -10 -28
9 l-12 21 -11 -23 c-14 -27 -44 -41 -34 -15 4 9 2 16 -3 16 -5 0 -11 8 -13 18
-4 13 -5 13 -6 -4 -1 -27 -31 -55 -31 -30 0 20 -14 21 -33 2 -17 -17 -37 -3
-37 26 0 26 -19 22 -30 -7 -5 -14 -12 -25 -15 -25 -4 0 -4 3 -2 8 3 4 -1 12
-8 19 -11 10 -15 10 -18 0 -3 -7 -6 -4 -6 6 -1 19 -16 23 -26 7 -10 -16 -34
-12 -57 10 -12 10 -26 16 -32 12 -16 -10 -56 -9 -56 1 0 5 -6 7 -14 4 -7 -3
-19 0 -25 6 -8 8 -11 8 -11 0 0 -6 -7 -13 -14 -16 -10 -4 -13 -1 -9 9 6 17 -8
19 -25 2 -7 -7 -12 -8 -12 -4 0 5 -7 3 -15 -4 -8 -7 -15 -9 -15 -4 0 5 -5 2
-10 -6 -8 -12 -10 -9 -10 13 0 26 -20 40 -20 15 0 -9 -3 -9 -9 1 -5 8 -7 21
-4 30 3 9 -5 5 -17 -9 -12 -14 -19 -19 -15 -13 3 7 0 13 -7 13 -10 0 -10 2 1
9 7 5 12 14 9 21 -2 8 -14 -3 -26 -24 -19 -32 -25 -36 -37 -26 -8 7 -15 22
-15 33 0 20 -1 20 -13 2 -16 -20 -37 -13 -37 13 0 10 -3 13 -8 7 -11 -17 -52
-16 -52 1 0 12 -5 12 -37 -1 l-38 -15 24 20 c21 18 17 26 -11 21 -5 0 -8 7 -8
17 -1 16 -1 16 -11 0 -12 -22 -49 -24 -49 -3 0 8 -7 15 -15 15 -8 0 -15 5 -15
11 0 8 -4 8 -14 0 -17 -15 -28 -1 -15 19 5 8 9 22 9 30 -1 12 -3 11 -11 -2 -5
-10 -21 -18 -34 -18 -13 0 -26 -6 -28 -12 -3 -7 -6 -3 -6 10 -1 19 -4 21 -20
13 -14 -8 -19 -7 -18 2 1 33 -4 51 -11 40 -7 -11 -26 -17 -49 -14 -6 1 -9 10
-5 23 5 21 4 22 -13 8 -17 -14 -18 -13 -13 7 6 21 5 22 -14 9 -21 -15 -52 -11
-42 5 8 13 -10 11 -24 -3 -9 -9 -12 -3 -12 27 0 37 0 38 -20 20 -18 -16 -20
-16 -26 -1 -4 11 -13 15 -25 11 -16 -5 -19 -1 -19 26 0 27 -2 30 -15 19 -19
-16 -27 -9 -29 25 -1 21 -3 23 -12 10 -15 -20 -25 -19 -17 3 6 15 5 16 -12 2
-17 -14 -17 -13 -11 10 7 25 7 25 -10 5 -12 -15 -15 -16 -11 -3 8 24 -4 30
-20 10 -12 -16 -13 -16 -7 1 4 12 2 17 -7 15 -9 -2 -13 4 -11 15 4 22 -7 22
-25 -1 -8 -9 -12 -12 -9 -6 3 6 -1 19 -8 30 -8 10 -12 24 -9 31 3 7 0 13 -6
13 -6 0 -11 6 -11 14 0 8 -7 17 -16 20 -10 4 -13 2 -8 -7 5 -8 2 -7 -9 2 -14
11 -15 16 -5 29 11 13 10 15 -5 9 -16 -6 -15 -1 7 40 l26 48 -31 -34 c-24 -25
-33 -30 -39 -20 -6 8 5 30 32 63 l41 51 -47 -48 c-26 -26 -44 -52 -41 -57 3
-6 1 -10 -4 -10 -6 0 -11 3 -11 7 0 11 53 86 70 100 8 7 11 13 6 13 -6 0 -21
-10 -35 -22 -29 -27 -23 -16 43 67 l40 50 -65 -60 c-35 -34 -74 -69 -87 -80
-23 -19 -23 -19 -15 1 9 24 61 102 73 109 6 3 15 16 21 28 6 12 -17 -5 -51
-38 -56 -53 -73 -60 -32 -13 7 9 11 21 8 27 -4 5 -2 12 4 16 5 3 15 16 21 28
6 12 -12 0 -40 -28 -39 -38 -54 -46 -63 -37 -9 9 -2 23 31 62 54 64 39 65 -28
2 -38 -36 -54 -45 -61 -36 -7 8 -7 20 0 38 10 28 2 34 -18 14 -9 -9 -12 -9
-12 0 0 7 -6 12 -14 12 -8 0 -18 5 -22 12 -4 6 -3 9 2 6 5 -4 10 6 11 20 1 25
0 26 -13 8 -10 -15 -16 -16 -27 -8 -8 7 -17 9 -21 5 -4 -4 -4 0 0 10 5 13 -1
20 -25 28 -26 9 -30 15 -25 35 6 25 -4 32 -22 14 -7 -7 -9 -1 -6 20 4 31 -12
39 -31 15 -5 -6 -7 -1 -4 10 2 11 -2 26 -10 33 -7 8 -13 8 -13 2 0 -5 -4 -10
-8 -10 -7 0 -12 20 -15 63 -1 18 -2 18 -15 0 -12 -16 -13 -14 -9 22 3 34 1 41
-15 41 -10 0 -18 -5 -18 -11 0 -5 -5 -2 -11 8 -5 9 -7 22 -4 27 3 6 1 10 -4
10 -6 0 -11 13 -11 30 0 23 -3 28 -16 23 -14 -5 -16 -1 -12 20 3 15 2 24 -2
22 -12 -7 -17 16 -14 59 3 45 -5 42 -16 -6 l-7 -33 -11 40 c-7 25 -12 124 -12
260 0 225 -12 508 -30 740 -36 459 -57 673 -80 850 -11 83 -27 215 -35 295 -8
80 -19 163 -25 185 l-9 40 29 -35 c17 -20 39 -66 50 -105z m5674 -775 c-35
-96 -103 -231 -131 -262 -18 -20 -33 -15 -33 12 0 10 -9 39 -19 64 -14 31 -16
43 -7 40 15 -6 135 119 186 194 19 28 36 49 37 48 1 -1 -13 -44 -33 -96z
m-2329 -1109 c7 -13 -55 -19 -360 -37 -463 -26 -498 -27 -630 -16 -71 7 -236
16 -365 23 -318 14 -360 27 -95 28 190 0 469 -10 633 -25 36 -3 78 0 98 6 20
7 168 15 361 19 181 4 333 9 340 9 6 1 14 -2 18 -7z m-1250 -78 c154 -10 354
-18 445 -18 152 0 651 27 763 42 37 4 47 3 47 -9 0 -20 -50 -88 -89 -121 -67
-56 -250 -91 -539 -103 -149 -7 -164 -6 -176 11 -12 17 -13 17 -20 0 -6 -17
-18 -17 -154 -11 -279 12 -507 54 -569 104 -34 27 -93 102 -93 119 0 12 10 13
53 9 28 -3 178 -14 332 -23z m-1495 -77 c0 -3 -4 -8 -10 -11 -5 -3 -10 -1 -10
4 0 6 5 11 10 11 6 0 10 -2 10 -4z m3750 -781 c13 -14 21 -25 18 -25 -2 0 -15
11 -28 25 -13 14 -21 25 -18 25 2 0 15 -11 28 -25z m41 -52 c13 -16 12 -17 -3
-4 -10 7 -18 15 -18 17 0 8 8 3 21 -13z m-85 -39 c14 -9 30 -26 36 -38 8 -16
3 -15 -23 9 -19 16 -38 33 -43 37 -18 15 5 8 30 -8z m14 -60 c0 -8 -4 -12 -10
-9 -5 3 -10 13 -10 21 0 8 5 12 10 9 6 -3 10 -13 10 -21z m-4100 -7 c0 -2 -12
-14 -27 -28 l-28 -24 24 28 c23 25 31 32 31 24z m-60 -71 c0 -2 -8 -10 -17
-17 -16 -13 -17 -12 -4 4 13 16 21 21 21 13z m-2585 -366 c0 -8 -8 -16 -17
-18 -13 -2 -18 3 -18 18 0 15 5 20 18 18 9 -2 17 -10 17 -18z m6198 -20 c3
-11 3 -20 1 -20 -2 0 -8 9 -14 20 -6 11 -7 20 -2 20 6 0 12 -9 15 -20z m-67
-37 c-10 -10 -19 5 -10 18 6 11 8 11 12 0 2 -7 1 -15 -2 -18z m3754 -4 c0 -5
-7 -9 -15 -9 -9 0 -12 6 -9 15 6 15 24 11 24 -6z m87 -21 c-16 -10 -29 5 -21
26 6 15 7 15 19 -1 10 -13 10 -20 2 -25z m-10067 11 c0 -5 -4 -9 -8 -9 -5 0
-9 7 -9 15 0 8 4 12 9 9 4 -3 8 -9 8 -15z m180 11 c0 -5 -4 -10 -10 -10 -5 0
-10 5 -10 10 0 6 5 10 10 10 6 0 10 -4 10 -10z m-90 -10 c0 -5 -4 -10 -10 -10
-5 0 -10 5 -10 10 0 6 5 10 10 10 6 0 10 -4 10 -10z m220 -36 c0 -3 -4 -2 -10
1 -5 3 -10 2 -10 -3 0 -5 -8 -12 -18 -14 -15 -4 -18 1 -18 23 0 27 0 27 28 13
15 -8 28 -17 28 -20z m9670 -6 c0 -5 -7 -8 -15 -8 -15 0 -20 21 -8 33 7 7 23
-11 23 -25z m-9808 0 c-7 -7 -12 -8 -12 -2 0 14 12 26 19 19 2 -3 -1 -11 -7
-17z m-82 8 c0 -3 -4 -8 -10 -11 -5 -3 -10 -1 -10 4 0 6 5 11 10 11 6 0 10 -2
10 -4z m9980 -6 c0 -5 -7 -10 -15 -10 -8 0 -15 5 -15 10 0 6 7 10 15 10 8 0
15 -4 15 -10z m-10075 -20 c-3 -5 -10 -10 -16 -10 -5 0 -9 5 -9 10 0 6 7 10
16 10 8 0 12 -4 9 -10z m298 -17 c-7 -2 -19 -2 -25 0 -7 3 -2 5 12 5 14 0 19
-2 13 -5z m9768 -16 c-13 -13 -26 -3 -16 12 3 6 11 8 17 5 6 -4 6 -10 -1 -17z
m-9971 9 c0 -3 -4 -8 -10 -11 -5 -3 -10 -1 -10 4 0 6 5 11 10 11 6 0 10 -2 10
-4z m200 -16 c0 -5 -4 -10 -10 -10 -5 0 -10 5 -10 10 0 6 5 10 10 10 6 0 10
-4 10 -10z m-300 -10 c0 -5 -2 -10 -4 -10 -3 0 -8 5 -11 10 -3 6 -1 10 4 10 6
0 11 -4 11 -10z m9880 -5 c-12 -15 -30 -12 -30 6 0 5 10 9 21 9 18 0 19 -2 9
-15z m-9690 -16 c0 -5 -4 -9 -10 -9 -5 0 -10 7 -10 16 0 8 5 12 10 9 6 -3 10
-10 10 -16z m96 2 c-4 -5 0 -11 6 -14 7 -2 9 -8 5 -13 -4 -5 -12 -2 -17 6 -13
20 -12 30 1 30 5 0 8 -4 5 -9z m9792 -20 c3 -8 -1 -12 -9 -9 -7 2 -15 10 -17
17 -3 8 1 12 9 9 7 -2 15 -10 17 -17z m-9981 3 c-3 -3 -12 -4 -19 -1 -8 3 -5
6 6 6 11 1 17 -2 13 -5z m9783 2 c0 -11 -19 -15 -25 -6 -3 5 1 10 9 10 9 0 16
-2 16 -4z m-2874 -116 c24 -39 44 -76 44 -81 0 -9 -79 -211 -85 -218 -2 -2 -5
82 -7 187 -2 105 -2 189 0 187 2 -1 23 -35 48 -75z m2729 71 c3 -5 1 -12 -5
-16 -5 -3 -10 1 -10 9 0 18 6 21 15 7z m-9635 -5 c0 -3 -4 -8 -10 -11 -5 -3
-10 -1 -10 4 0 6 5 11 10 11 6 0 10 -2 10 -4z m9676 -11 c-3 -8 -1 -15 5 -15
6 0 7 -4 4 -10 -12 -20 -35 -10 -35 15 0 16 6 25 16 25 10 0 14 -6 10 -15z
m304 -22 c0 -7 -5 -13 -11 -13 -5 0 -7 5 -4 10 3 6 2 10 -4 10 -6 0 -8 7 -4
16 5 13 7 13 14 2 5 -7 9 -19 9 -25z m-9790 12 c0 -8 -4 -15 -10 -15 -5 0 -10
7 -10 15 0 8 5 15 10 15 6 0 10 -7 10 -15z m-100 -5 c0 -5 -5 -10 -11 -10 -5
0 -7 5 -4 10 3 6 8 10 11 10 2 0 4 -4 4 -10z m9690 -6 c0 -2 -7 -4 -15 -4 -8
0 -15 4 -15 10 0 5 7 7 15 4 8 -4 15 -8 15 -10z m108 4 c-6 -18 -28 -21 -28
-4 0 9 7 16 16 16 9 0 14 -5 12 -12z m-9888 -2 c0 -11 -19 -15 -25 -6 -3 5 1
10 9 10 9 0 16 -2 16 -4z m2980 -172 c0 -85 -4 -153 -9 -150 -17 11 -43 129
-37 170 6 39 37 136 43 136 2 0 3 -70 3 -156z m-3075 116 c3 -5 1 -10 -4 -10
-6 0 -11 5 -11 10 0 6 2 10 4 10 3 0 8 -4 11 -10z m390 0 c3 -6 -1 -13 -10
-16 -19 -8 -30 0 -20 15 8 14 22 14 30 1z m9385 -11 c0 -5 -6 -9 -13 -9 -8 0
-14 6 -14 14 0 8 6 12 14 9 7 -3 13 -9 13 -14z m96 9 c4 -7 3 -8 -4 -4 -7 4
-12 2 -12 -5 0 -7 -3 -10 -6 -6 -6 5 3 27 11 27 2 0 7 -5 11 -12z m-9586 -2
c0 -3 -4 -8 -10 -11 -5 -3 -10 -1 -10 4 0 6 5 11 10 11 6 0 10 -2 10 -4z
m9790 -17 c0 -5 -7 -9 -15 -9 -15 0 -20 12 -9 23 8 8 24 -1 24 -14z m-9594
-38 c-7 -11 -36 -16 -36 -6 0 3 6 12 13 20 13 15 33 3 23 -14z m-196 11 c0
-13 -12 -22 -22 -16 -10 6 -1 24 13 24 5 0 9 -4 9 -8z m100 -2 c0 -5 -7 -10
-16 -10 -8 0 -12 5 -9 10 3 6 10 10 16 10 5 0 9 -4 9 -10z m9217 -26 c2 -7 -2
-18 -9 -26 -17 -17 -21 -38 -8 -38 6 0 10 -4 10 -10 0 -5 -6 -10 -14 -10 -9 0
-14 10 -14 28 0 15 -1 32 -2 37 -5 23 1 36 17 33 9 -2 18 -8 20 -14z m473 -10
c0 -8 -5 -14 -11 -14 -5 0 -7 5 -4 10 3 6 1 10 -5 10 -6 0 -8 5 -5 10 8 13 25
3 25 -16z m-305 -2 c0 -18 -20 -15 -23 4 -3 10 1 15 10 12 7 -3 13 -10 13 -16z
m380 8 c3 -5 1 -10 -4 -10 -6 0 -11 5 -11 10 0 6 2 10 4 10 3 0 8 -4 11 -10z
m-9672 -15 c4 -8 2 -17 -4 -20 -5 -4 -6 -12 -2 -18 4 -7 0 -6 -10 2 -9 7 -17
22 -17 32 0 22 25 25 33 4z m-93 -15 c0 -5 -7 -10 -16 -10 -8 0 -12 5 -9 10 3
6 10 10 16 10 5 0 9 -4 9 -10z m1757 -32 c-3 -8 -6 -5 -6 6 -1 11 2 17 5 13 3
-3 4 -12 1 -19z m7538 -8 c3 -6 -1 -7 -9 -4 -18 7 -21 14 -7 14 6 0 13 -4 16
-10z m-9295 -30 c0 -5 -7 -10 -16 -10 -8 0 -12 5 -9 10 3 6 10 10 16 10 5 0 9
-4 9 -10z m88 -7 c-4 -22 -22 -20 -26 1 -2 10 3 16 13 16 10 0 15 -7 13 -17z
m89 -5 c-2 -44 -37 -46 -37 -2 0 17 5 24 19 24 14 0 19 -6 18 -22z m9028 2 c0
-7 -6 -15 -12 -17 -8 -3 -13 4 -13 17 0 13 5 20 13 18 6 -3 12 -11 12 -18z
m92 -10 c1 -11 -4 -20 -12 -20 -14 0 -27 24 -18 34 13 13 29 5 30 -14z m100 0
c4 -12 3 -13 -5 -1 -5 7 -15 10 -21 7 -6 -4 -11 -2 -11 4 0 17 33 8 37 -10z
m293 -4 c0 -11 -19 -15 -25 -6 -3 5 1 10 9 10 9 0 16 -2 16 -4z m-570 -46 c0
-5 -4 -10 -10 -10 -5 0 -10 5 -10 10 0 6 5 10 10 10 6 0 10 -4 10 -10z m-8854
-25 c8 -32 -15 -65 -28 -41 -10 17 0 66 13 66 5 0 11 -11 15 -25z m8942 -10
c1 -16 -3 -25 -13 -25 -16 0 -19 9 -9 34 9 24 19 19 22 -9z m-9030 -8 c2 -11
-3 -17 -16 -17 -18 0 -20 6 -13 38 3 11 27 -7 29 -21z m8949 7 c8 -20 -17 -36
-34 -22 -10 8 -10 14 -2 24 15 18 28 18 36 -2z m-9037 -9 c0 -8 -7 -15 -15
-15 -16 0 -20 12 -8 23 11 12 23 8 23 -8z m9208 -3 c2 -7 -5 -12 -15 -11 -12
0 -14 2 -4 6 11 5 11 7 0 15 -12 8 -12 9 0 6 8 -3 17 -10 19 -16z m-183 -52
c3 -5 -1 -10 -10 -10 -9 0 -13 5 -10 10 3 6 8 10 10 10 2 0 7 -4 10 -10z
m-8855 -10 c0 -5 -4 -10 -10 -10 -5 0 -10 5 -10 10 0 6 5 10 10 10 6 0 10 -4
10 -10z m-80 -30 c0 -15 -28 -32 -35 -20 -3 5 -2 10 4 10 6 0 8 7 5 15 -5 11
-2 13 10 9 9 -3 16 -10 16 -14z m8945 10 c3 -5 -3 -10 -14 -10 -11 0 -23 5
-26 10 -3 6 3 10 14 10 11 0 23 -4 26 -10z m83 -7 c-2 -9 -9 -18 -16 -19 -7
-1 -8 0 -2 3 5 2 10 9 10 14 0 6 -4 7 -10 4 -5 -3 -10 -1 -10 4 0 6 7 11 16
11 9 0 14 -7 12 -17z m-8948 -3 c0 -5 -7 -10 -15 -10 -8 0 -15 5 -15 10 0 6 7
10 15 10 8 0 15 -4 15 -10z m8860 -20 c0 -5 -7 -10 -15 -10 -8 0 -15 5 -15 10
0 6 7 10 15 10 8 0 15 -4 15 -10z m-7620 -7 c-1 -5 -10 -24 -21 -43 -18 -32
-19 -26 -3 15 4 9 1 15 -7 15 -11 0 -11 3 1 10 18 12 30 13 30 3z m-1143 -40
c-11 -10 -26 8 -20 23 5 15 7 14 15 -1 6 -9 7 -19 5 -22z m103 2 c0 -8 -5 -17
-12 -21 -6 -4 -8 -3 -4 4 3 5 1 12 -6 14 -6 2 -8 10 -4 16 9 15 26 6 26 -13z
m8572 10 c0 -5 -5 -11 -11 -13 -6 -2 -11 4 -11 13 0 9 5 15 11 13 6 -2 11 -8
11 -13z m250 -7 c-7 -7 -12 -8 -12 -2 0 14 12 26 19 19 2 -3 -1 -11 -7 -17z
m-9022 -28 c0 -5 -7 -10 -16 -10 -8 0 -12 5 -9 10 3 6 10 10 16 10 5 0 9 -4 9
-10z m100 -10 c0 -4 -6 -10 -13 -13 -7 -3 -13 3 -13 13 0 10 6 16 13 13 7 -3
13 -9 13 -13z m8757 0 c2 -19 -8 -26 -20 -14 -7 7 2 34 12 34 4 0 7 -9 8 -20z
m90 14 c-3 -3 -12 -4 -19 -1 -8 3 -5 6 6 6 11 1 17 -2 13 -5z m-170 -21 c2 -6
-3 -13 -12 -16 -10 -5 -15 0 -15 14 0 21 21 22 27 2z m-8577 -23 c0 -16 -4
-30 -9 -30 -5 0 -9 14 -9 30 1 17 5 30 10 30 4 0 8 -13 8 -30z m-200 16 c0 -3
-4 -8 -10 -11 -5 -3 -10 -1 -10 4 0 6 5 11 10 11 6 0 10 -2 10 -4z m8948 -14
c2 -7 -1 -12 -8 -12 -6 0 -9 4 -6 9 4 5 1 12 -4 14 -6 3 -5 4 2 3 6 -1 14 -8
16 -14z m89 2 c-3 -3 -12 -4 -19 -1 -8 3 -5 6 6 6 11 1 17 -2 13 -5z m-357
-14 c0 -5 -10 -10 -22 -9 -22 0 -22 1 -3 9 11 5 21 9 23 9 1 1 2 -3 2 -9z m90
-20 c0 -5 -4 -10 -10 -10 -5 0 -10 5 -10 10 0 6 5 10 10 10 6 0 10 -4 10 -10z
m-7896 -12 c-4 -7 -17 -26 -28 -43 -11 -16 -38 -63 -59 -105 -21 -41 -35 -66
-32 -55 18 51 18 53 -9 50 -23 -3 -25 -1 -15 16 5 11 14 17 19 14 5 -3 12 0
16 6 4 8 3 9 -4 5 -20 -12 -13 3 21 49 17 24 46 50 62 58 38 20 38 20 29 5z
m7802 -3 c-3 -8 0 -15 6 -15 6 0 9 -2 6 -6 -3 -3 -21 2 -39 10 -30 13 -30 14
-6 10 16 -4 27 -2 27 5 0 6 3 11 6 11 3 0 4 -7 0 -15z m-8576 1 c0 -3 -4 -8
-10 -11 -5 -3 -10 -1 -10 4 0 6 5 11 10 11 6 0 10 -2 10 -4z m90 -16 c0 -5 -4
-10 -10 -10 -5 0 -10 5 -10 10 0 6 5 10 10 10 6 0 10 -4 10 -10z m8585 0 c-3
-5 -13 -10 -21 -10 -8 0 -12 5 -9 10 3 6 13 10 21 10 8 0 12 -4 9 -10z m85 0
c8 -5 13 -10 10 -11 -3 0 -13 -2 -22 -4 -10 -2 -18 3 -18 11 0 16 9 18 30 4z
m175 -11 c-4 -5 -12 -9 -18 -8 -9 0 -8 2 1 6 6 2 9 10 6 15 -4 7 -2 8 5 4 6
-4 9 -12 6 -17z m-8925 1 c0 -5 -10 -10 -22 -10 -19 0 -20 2 -8 10 19 13 30
13 30 0z m130 0 c-8 -5 -19 -10 -25 -10 -5 0 -3 5 5 10 8 5 20 10 25 10 6 0 3
-5 -5 -10z m8710 0 c0 -5 -10 -10 -22 -9 -22 0 -22 1 -3 9 11 5 21 9 23 9 1 1
2 -3 2 -9z m-8948 -25 c0 -5 -5 -11 -10 -13 -5 -1 -9 4 -9 13 0 9 4 14 9 13 5
-2 10 -8 10 -13z m95 -1 c-3 -3 -12 -4 -19 -1 -8 3 -5 6 6 6 11 1 17 -2 13 -5z
m8763 -4 c0 -5 -4 -10 -9 -10 -6 0 -13 5 -16 10 -3 6 1 10 9 10 9 0 16 -4 16
-10z m-8155 -137 c-10 -14 -26 -41 -37 -60 -22 -37 -35 -46 -17 -10 19 35 61
97 66 97 3 0 -3 -12 -12 -27z m-656 -155 c-15 -30 -24 -38 -16 -15 6 15 3 17
-16 13 -14 -4 -11 -1 8 9 17 8 31 14 33 15 1 0 -3 -10 -9 -22z m-66 -15 c-7
-2 -13 -12 -13 -20 0 -9 -3 -14 -6 -10 -10 10 4 37 18 36 10 0 10 -2 1 -6z
m-36 -115 c-3 -7 -5 -2 -5 12 0 14 2 19 5 13 2 -7 2 -19 0 -25z m110 10 c-3
-8 -6 -5 -6 6 -1 11 2 17 5 13 3 -3 4 -12 1 -19z m-50 -20 c-3 -8 -6 -5 -6 6
-1 11 2 17 5 13 3 -3 4 -12 1 -19z m40 -40 c-3 -7 -5 -2 -5 12 0 14 2 19 5 13
2 -7 2 -19 0 -25z m-110 -35 c-3 -10 -5 -2 -5 17 0 19 2 27 5 18 2 -10 2 -26
0 -35z m60 -15 c-2 -13 -4 -5 -4 17 -1 22 1 32 4 23 2 -10 2 -28 0 -40z m-70
-80 c-2 -13 -4 -5 -4 17 -1 22 1 32 4 23 2 -10 2 -28 0 -40z m110 15 c-3 -10
-5 -4 -5 12 0 17 2 24 5 18 2 -7 2 -21 0 -30z m-596 -48 c-8 -47 -9 -48 -10
-12 -1 37 -8 44 -27 30 -5 -5 1 2 14 15 14 13 26 22 28 20 1 -2 -1 -26 -5 -53z
m546 -32 c-2 -16 -4 -3 -4 27 0 30 2 43 4 28 2 -16 2 -40 0 -55z m-600 -5 c-3
-7 -5 -2 -5 12 0 14 2 19 5 13 2 -7 2 -19 0 -25z m1721 -103 c-34 -68 -64
-122 -66 -120 -2 2 4 17 13 34 9 18 13 36 10 41 -3 6 -1 10 4 10 6 0 29 36 51
80 22 44 42 80 45 80 3 0 -23 -56 -57 -125z m-33 15 c-25 -49 -47 -90 -50 -90
-3 0 15 41 40 90 25 50 47 90 50 90 3 0 -15 -40 -40 -90z m-1698 13 c-3 -10
-5 -4 -5 12 0 17 2 24 5 18 2 -7 2 -21 0 -30z m25 -25 c-6 -6 -7 0 -4 19 5 21
7 23 10 9 2 -10 0 -22 -6 -28z m575 -95 c-2 -16 -4 -5 -4 22 0 28 2 40 4 28 2
-13 2 -35 0 -50z"/>
<path d="M3944 7006 c-128 -24 -239 -72 -286 -123 l-23 -26 45 26 c25 14 81
36 125 49 76 22 95 23 385 22 237 0 328 -4 409 -17 125 -20 126 -20 113 -4
-14 16 -88 43 -177 63 -98 22 -493 29 -591 10z"/>
<path d="M5885 7009 c-139 -19 -309 -68 -292 -85 3 -3 51 2 108 11 142 23 610
32 717 15 89 -14 169 -42 207 -72 40 -31 40 -15 0 21 -43 37 -110 72 -185 96
-44 14 -99 18 -270 21 -118 1 -246 -2 -285 -7z"/>
<path d="M3875 6862 c-50 -6 -33 -8 100 -15 365 -17 635 -52 722 -92 31 -14
58 -23 61 -21 9 9 -93 67 -144 82 -28 8 -100 21 -160 29 -120 17 -485 27 -579
17z"/>
<path d="M5970 6859 c-230 -24 -414 -74 -428 -117 -3 -11 1 -11 19 1 52 34
256 68 614 103 94 9 172 18 174 20 8 7 -293 1 -379 -7z"/>
<path d="M4792 6143 c-1 -23 -5 -50 -8 -60 -5 -17 -5 -17 6 0 6 9 9 36 7 60
l-4 42 -1 -42z"/>
<path d="M5880 5226 c0 -9 68 -35 158 -61 65 -20 300 -57 339 -54 24 1 -173
52 -307 79 -85 17 -163 34 -172 36 -10 3 -18 3 -18 0z"/>
<path d="M6746 5129 c-99 -26 -299 -42 -456 -35 l-135 6 43 -20 c94 -43 321
-50 472 -14 61 14 142 53 155 74 7 12 8 12 -79 -11z"/>
<path d="M4100 5184 c-298 -59 -307 -62 -192 -63 107 -1 207 17 330 61 96 33
128 48 102 47 -8 -1 -116 -21 -240 -45z"/>
<path d="M3394 5122 c25 -29 104 -57 199 -72 90 -15 313 -8 367 11 67 23 59
32 -25 26 -154 -11 -420 13 -540 50 -20 6 -20 5 -1 -15z"/>
<path d="M2080 5459 c-46 -19 -90 -60 -115 -110 -32 -61 -65 -242 -49 -266 19
-31 33 -25 44 19 38 152 62 210 100 248 22 22 47 40 56 40 9 0 41 -25 70 -56
30 -31 60 -54 66 -51 18 6 12 73 -10 111 -36 62 -102 89 -162 65z"/>
<path d="M2050 4895 c0 -3 14 -33 31 -67 20 -40 64 -95 126 -159 53 -55 100
-99 105 -99 33 0 -27 122 -77 154 -14 9 -54 52 -91 96 -36 44 -72 80 -80 80
-8 0 -14 -2 -14 -5z"/>
<path d="M2010 4814 c0 -16 9 -47 21 -69 36 -69 129 -153 129 -116 0 7 -127
189 -146 210 -2 2 -4 -9 -4 -25z"/>
<path d="M8008 5448 c-44 -26 -68 -70 -68 -128 0 -37 2 -41 22 -38 15 2 31 18
46 46 19 34 29 42 52 42 58 0 126 -115 146 -247 8 -50 27 -71 48 -54 24 20 -4
203 -43 279 -33 63 -108 123 -154 122 -7 0 -29 -10 -49 -22z"/>
<path d="M8071 4785 c-62 -60 -119 -122 -127 -137 -15 -30 -19 -68 -6 -68 5 0
51 42 104 93 97 95 153 173 146 204 -3 14 -31 -8 -117 -92z"/>
<path d="M8146 4728 c-46 -50 -82 -96 -80 -100 10 -16 86 37 119 82 41 57 68
110 56 110 -5 0 -48 -41 -95 -92z"/>
<path d="M7011 3234 c0 -11 3 -14 6 -6 3 7 2 16 -1 19 -3 4 -6 -2 -5 -13z"/>
<path d="M7010 3200 c0 -5 5 -10 11 -10 5 0 7 5 4 10 -3 6 -8 10 -11 10 -2 0
-4 -4 -4 -10z"/>
<path d="M4266 2971 c22 -22 117 -61 216 -90 367 -104 994 -107 1305 -5 88 29
208 82 201 89 -3 3 -41 -6 -84 -19 -259 -81 -402 -101 -729 -100 -345 0 -547
27 -814 108 -92 28 -111 31 -95 17z"/>
<path d="M7380 2950 c0 -5 5 -10 10 -10 6 0 10 5 10 10 0 6 -4 10 -10 10 -5 0
-10 -4 -10 -10z"/>
<path d="M7365 2900 c-3 -5 -1 -10 4 -10 6 0 11 5 11 10 0 6 -2 10 -4 10 -3 0
-8 -4 -11 -10z"/>
<path d="M7215 2760 c3 -5 8 -10 11 -10 2 0 4 5 4 10 0 6 -5 10 -11 10 -5 0
-7 -4 -4 -10z"/>
<path d="M7150 2670 c0 -5 5 -10 11 -10 5 0 7 5 4 10 -3 6 -8 10 -11 10 -2 0
-4 -4 -4 -10z"/>
<path d="M7020 2660 c0 -5 5 -10 10 -10 6 0 10 5 10 10 0 6 -4 10 -10 10 -5 0
-10 -4 -10 -10z"/>
<path d="M3050 2609 c0 -5 5 -7 10 -4 6 3 10 8 10 11 0 2 -4 4 -10 4 -5 0 -10
-5 -10 -11z"/>
<path d="M6864 2452 c3 -6 25 -25 49 -43 l42 -33 -30 33 c-30 33 -74 63 -61
43z"/>
<path d="M6650 2110 c0 -5 5 -10 11 -10 5 0 7 5 4 10 -3 6 -8 10 -11 10 -2 0
-4 -4 -4 -10z"/>
<path d="M3786 1945 c4 -8 8 -15 10 -15 2 0 4 7 4 15 0 8 -4 15 -10 15 -5 0
-7 -7 -4 -15z"/>
<path d="M5880 1736 c0 -9 5 -16 10 -16 6 0 10 4 10 9 0 6 -4 13 -10 16 -5 3
-10 -1 -10 -9z"/>
<path d="M7820 10219 c0 -13 4 -18 12 -13 20 13 81 4 93 -13 9 -12 21 -14 48
-9 21 4 37 11 37 16 0 19 21 10 29 -12 10 -27 3 -57 -9 -38 -4 7 -10 8 -13 3
-7 -11 81 -69 99 -65 17 4 24 -11 26 -52 l1 -35 20 25 c10 14 17 28 13 31 -10
10 15 33 36 33 17 0 19 -5 15 -45 -3 -29 -1 -48 8 -55 9 -8 15 -8 20 0 3 5 18
10 33 11 15 0 21 3 14 6 -15 6 -6 23 13 23 9 0 14 -8 12 -22 -1 -14 6 -26 21
-34 16 -8 19 -13 10 -16 -7 -3 4 -11 24 -18 21 -8 41 -22 44 -33 4 -14 12 -17
31 -12 18 4 23 2 18 -7 -3 -7 2 -3 11 10 15 21 42 32 30 13 -4 -5 -1 -11 5
-13 7 -2 7 -12 0 -30 -7 -18 -7 -29 0 -33 5 -4 9 -12 8 -18 -3 -25 1 -34 16
-34 8 0 15 5 15 10 0 5 7 6 16 3 8 -3 12 -2 9 4 -3 6 -15 10 -26 10 -10 0 -19
4 -19 9 0 4 12 7 26 5 15 -1 28 3 31 12 4 11 9 12 19 3 16 -13 19 -39 5 -39
-13 0 -1 -37 17 -52 12 -10 14 -10 8 0 -4 6 -3 12 1 12 5 0 15 -6 22 -12 11
-10 13 -10 7 0 -5 8 0 12 13 12 12 0 20 -3 20 -7 -4 -26 4 -30 50 -28 27 2 52
0 57 -4 15 -10 13 -41 -2 -41 -12 0 -12 -4 2 -25 14 -21 21 -23 57 -18 46 6
69 -12 60 -48 -3 -11 -2 -19 3 -18 26 5 45 -2 38 -13 -5 -9 -2 -8 10 1 13 11
20 11 28 3 7 -7 8 -12 4 -12 -5 0 -3 -6 3 -14 9 -11 8 -17 -4 -29 -9 -10 -11
-18 -5 -22 5 -3 10 -17 10 -31 0 -13 5 -24 11 -24 5 0 8 4 5 9 -3 4 6 6 19 3
25 -4 35 12 13 21 -8 4 -7 6 4 6 14 1 15 6 8 31 -13 46 6 91 25 60 3 -5 0 -10
-7 -10 -10 0 -9 -3 1 -9 12 -7 12 -13 3 -24 -7 -7 -9 -16 -6 -19 3 -3 6 -19 7
-34 2 -27 5 -29 47 -29 50 0 63 -9 55 -42 -3 -12 -1 -33 5 -47 5 -14 6 -26 1
-26 -10 0 -1 -59 10 -66 5 -3 6 3 2 13 -3 10 -3 15 2 11 11 -10 45 10 45 27 0
8 -6 15 -12 15 -10 0 -10 2 0 9 7 4 14 17 15 29 1 20 2 20 19 5 14 -12 15 -19
7 -30 -6 -7 -8 -13 -4 -13 4 0 2 -7 -5 -15 -7 -9 -8 -15 -2 -15 5 0 9 -16 8
-35 -1 -20 4 -37 11 -39 7 -3 10 -12 7 -21 -4 -9 0 -16 7 -16 8 -1 23 -3 34
-4 11 -1 26 -3 34 -3 7 -1 11 -8 8 -17 -4 -8 -2 -17 3 -20 6 -3 6 -15 0 -30
-6 -15 -6 -27 1 -30 5 -4 7 -10 5 -14 -8 -12 28 -9 37 3 6 7 7 4 3 -6 -6 -21
5 -30 24 -17 10 6 11 9 3 9 -7 0 -13 5 -13 10 0 19 30 10 31 -10 2 -32 4 -38
11 -46 4 -4 3 -13 -3 -20 -13 -16 -4 -48 11 -39 5 3 10 2 10 -3 0 -6 7 -13 16
-16 12 -4 15 -2 11 9 -8 19 11 31 26 16 9 -9 8 -17 -2 -33 -10 -16 -10 -23 -2
-26 6 -2 11 -20 11 -41 0 -33 3 -37 25 -37 14 0 25 5 25 12 0 6 8 15 17 18 10
4 14 4 10 0 -3 -4 2 -19 13 -34 15 -21 17 -30 7 -40 -10 -10 -8 -11 8 -3 23
12 58 9 63 -5 1 -5 8 -16 15 -25 14 -20 57 -12 57 9 0 8 6 14 14 14 9 0 13
-13 11 -45 -1 -25 2 -48 6 -50 4 -3 5 -14 2 -25 -4 -14 0 -20 11 -20 9 0 16
-7 16 -15 0 -8 -5 -15 -10 -15 -6 0 -2 -10 9 -22 11 -11 18 -25 15 -30 -3 -5
-2 -8 3 -7 4 1 21 1 36 0 20 -1 26 -5 20 -13 -4 -7 -6 -21 -5 -30 2 -10 -2
-18 -7 -18 -6 0 -11 -4 -11 -10 0 -5 7 -10 16 -10 14 0 14 -3 4 -15 -9 -11
-10 -22 -2 -42 7 -16 11 -35 10 -43 -3 -41 1 -46 48 -45 42 1 72 -14 46 -23
-7 -2 -8 -9 -2 -20 5 -9 11 -25 14 -34 3 -10 15 -18 27 -18 14 0 19 5 16 15
-4 8 -2 17 3 20 6 4 10 15 10 25 0 28 17 34 30 10 8 -16 8 -25 0 -35 -9 -11
-7 -16 9 -24 27 -15 31 -14 25 4 -4 8 -1 15 5 15 6 0 11 9 11 19 0 11 6 18 16
17 9 0 19 5 21 12 3 6 -2 12 -11 12 -9 0 -16 5 -16 10 0 6 6 10 13 10 8 0 8 3
2 8 -12 8 -18 55 -7 48 4 -2 7 12 8 32 0 21 -1 31 -3 25 -3 -7 -9 -13 -13 -13
-12 0 -4 58 10 75 7 8 9 19 5 26 -4 6 -2 15 5 19 9 5 6 14 -12 30 -16 17 -18
21 -6 17 24 -8 33 9 11 22 -17 9 -17 10 0 16 14 6 15 10 6 21 -8 10 -8 14 0
14 16 0 15 147 -1 153 -10 4 -10 6 0 6 9 1 12 150 12 711 l0 710 -1210 0
-1210 0 0 -21z m407 -25 c8 -21 -13 -42 -28 -27 -13 13 -5 43 11 43 6 0 13 -7
17 -16z m-96 -1 c-11 -4 -11 -7 0 -14 17 -10 5 -23 -15 -16 -20 8 -9 37 13 36
12 0 12 -2 2 -6z m195 -7 c16 -17 4 -29 -20 -20 -17 7 -20 16 -9 27 9 10 13 9
29 -7z m97 -13 c-7 -2 -19 -2 -25 0 -7 3 -2 5 12 5 14 0 19 -2 13 -5z m104 1
c-3 -3 -12 -4 -19 -1 -8 3 -5 6 6 6 11 1 17 -2 13 -5z m-392 -54 c0 -7 -6 -15
-12 -17 -8 -3 -13 4 -13 17 0 13 5 20 13 18 6 -3 12 -11 12 -18z m92 3 c2 -6
-3 -13 -12 -16 -10 -5 -15 0 -15 14 0 21 21 22 27 2z m98 -53 c0 -22 -29 -18
-33 3 -3 14 1 18 15 15 10 -2 18 -10 18 -18z m89 -2 c-7 -11 -34 -10 -34 1 0
6 9 9 19 8 11 0 17 -5 15 -9z m106 -18 c0 -5 -4 -10 -9 -10 -6 0 -13 5 -16 10
-3 6 1 10 9 10 9 0 16 -4 16 -10z m100 4 c0 -8 -19 -13 -24 -6 -3 5 1 9 9 9 8
0 15 -2 15 -3z m90 2 c0 -11 -19 -15 -25 -6 -3 5 1 10 9 10 9 0 16 -2 16 -4z
m-285 -66 c4 -6 -1 -7 -11 -3 -12 4 -15 3 -10 -5 4 -7 1 -12 -8 -12 -17 0 -21
12 -9 23 10 10 31 8 38 -3z m199 2 c2 -4 1 -14 -4 -22 -7 -11 -11 -12 -25 0
-13 10 -13 15 -3 21 17 11 26 11 32 1z m89 2 c9 -10 -4 -34 -18 -34 -17 0 -28
17 -20 30 7 11 28 13 38 4z m97 -14 c0 -22 -1 -23 -24 -14 -13 5 -14 9 -5 20
16 20 29 17 29 -6z m-292 -1 c-2 -6 -8 -10 -13 -10 -5 0 -11 4 -13 10 -2 6 4
11 13 11 9 0 15 -5 13 -11z m-98 -23 c0 -2 -7 -7 -16 -10 -8 -3 -12 -2 -9 4 6
10 25 14 25 6z m195 -15 c-3 -5 -1 -12 4 -15 8 -5 8 -27 1 -46 -1 -3 -2 -9 -1
-15 1 -5 -7 0 -19 11 -21 21 -21 23 -5 48 16 23 34 39 20 17z m91 -26 c-3 -8
-1 -15 4 -15 6 0 10 -4 10 -10 0 -11 -33 -14 -43 -4 -9 9 11 44 24 44 6 0 9
-7 5 -15z m104 -25 c11 -7 11 -10 2 -10 -8 0 -10 -5 -6 -12 5 -9 2 -9 -9 1
-30 24 -19 41 13 21z m100 -4 c0 -3 -4 -8 -10 -11 -5 -3 -10 -1 -10 4 0 6 5
11 10 11 6 0 10 -2 10 -4z m-205 -25 c3 -5 1 -12 -5 -16 -5 -3 -10 1 -10 9 0
18 6 21 15 7z m8 -38 c4 -3 2 -12 -4 -20 -9 -10 -8 -13 0 -13 7 0 9 -4 6 -10
-11 -17 -32 -11 -38 12 -3 12 -4 25 -1 30 6 10 28 11 37 1z m90 -13 c-3 -11 0
-20 6 -20 6 0 11 -4 11 -10 0 -5 -9 -10 -21 -10 -15 0 -19 4 -15 16 3 9 6 22
6 30 0 8 4 14 9 14 5 0 7 -9 4 -20z m107 10 c0 -5 -5 -10 -11 -10 -5 0 -7 5
-4 10 3 6 8 10 11 10 2 0 4 -4 4 -10z m15 -89 c3 -5 1 -12 -4 -15 -5 -4 -11
-2 -13 4 -2 6 -9 6 -18 0 -12 -7 -10 -11 9 -18 17 -6 21 -11 12 -16 -18 -11
-43 25 -29 41 12 15 34 17 43 4z m85 -1 c0 -5 -4 -10 -10 -10 -5 0 -10 5 -10
10 0 6 5 10 10 10 6 0 10 -4 10 -10z m173 -25 c-3 -9 -8 -14 -10 -11 -3 3 -2
9 2 15 9 16 15 13 8 -4z m-73 -5 c0 -5 -7 -10 -15 -10 -8 0 -15 5 -15 10 0 6
7 10 15 10 8 0 15 -4 15 -10z m-190 -40 c0 -5 -9 -10 -20 -10 -11 0 -20 5 -20
10 0 6 9 10 20 10 11 0 20 -4 20 -10z m99 -33 c13 -16 5 -27 -21 -27 -18 0
-25 20 -11 33 10 10 19 8 32 -6z m91 -8 c0 -5 -9 -9 -20 -9 -11 0 -20 4 -20
10 0 5 7 6 17 3 12 -5 14 -3 8 7 -5 9 -4 11 3 6 7 -4 12 -11 12 -17z m100 2
c0 -13 -12 -20 -26 -14 -20 8 -17 19 6 20 11 1 20 -2 20 -6z m-10 -61 c0 -5
-4 -10 -10 -10 -5 0 -10 5 -10 10 0 6 5 10 10 10 6 0 10 -4 10 -10z m-3 -28
c8 -5 8 -12 -3 -26 -8 -11 -14 -15 -14 -9 0 6 -3 18 -6 27 -7 17 3 21 23 8z
m100 -8 c-3 -3 -12 -4 -19 -1 -8 3 -5 6 6 6 11 1 17 -2 13 -5z m0 -20 c-3 -3
-12 -4 -19 -1 -8 3 -5 6 6 6 11 1 17 -2 13 -5z m-97 -38 c0 -3 -4 -8 -10 -11
-5 -3 -10 -1 -10 4 0 6 5 11 10 11 6 0 10 -2 10 -4z m94 -41 c3 -9 0 -15 -9
-15 -16 0 -27 14 -18 24 10 10 21 7 27 -9z m102 -86 c8 -13 -13 -36 -23 -24
-5 4 -2 10 6 13 11 4 11 6 0 13 -9 6 -10 9 -2 9 6 0 15 -5 19 -11z m94 -9 c0
-5 -8 -10 -17 -10 -15 0 -16 2 -3 10 19 12 20 12 20 0z m-5 -60 c3 -5 -1 -10
-9 -10 -9 0 -16 5 -16 10 0 6 4 10 9 10 6 0 13 -4 16 -10z m-88 -6 c-3 -3 -12
-4 -19 -1 -8 3 -5 6 6 6 11 1 17 -2 13 -5z m3 -58 c0 -17 -13 -19 -44 -7 -18
7 -18 8 -3 14 9 3 17 14 17 22 0 15 2 15 15 1 8 -8 15 -22 15 -30z m355 13
c-4 -5 -12 -9 -18 -8 -9 0 -8 2 1 6 6 2 9 10 6 15 -4 7 -2 8 5 4 6 -4 9 -12 6
-17z m-267 -1 c-6 -18 -28 -21 -28 -4 0 9 7 16 16 16 9 0 14 -5 12 -12z m92 2
c0 -5 -7 -10 -15 -10 -8 0 -15 5 -15 10 0 6 7 10 15 10 8 0 15 -4 15 -10z m90
-4 c0 -3 -4 -8 -10 -11 -5 -3 -10 -1 -10 4 0 6 5 11 10 11 6 0 10 -2 10 -4z
m-93 -42 c-3 -3 -12 -4 -19 -1 -8 3 -5 6 6 6 11 1 17 -2 13 -5z m-84 -34 c6
-23 -10 -37 -25 -22 -12 12 -4 42 11 42 5 0 11 -9 14 -20z m257 -6 c0 -16 -16
-19 -25 -4 -8 13 4 32 16 25 5 -4 9 -13 9 -21z m-170 -4 c0 -5 -7 -10 -15 -10
-8 0 -15 5 -15 10 0 6 7 10 15 10 8 0 15 -4 15 -10z m81 -13 c-13 -13 -26 -3
-16 12 3 6 11 8 17 5 6 -4 6 -10 -1 -17z m-86 -67 c7 -21 0 -40 -15 -40 -5 0
-8 14 -8 30 1 34 14 40 23 10z m275 -5 c0 -8 -7 -15 -15 -15 -16 0 -20 12 -8
23 11 12 23 8 23 -8z m-98 -17 c-9 -9 -15 -9 -24 0 -9 9 -7 12 12 12 19 0 21
-3 12 -12z m-92 -8 c0 -5 -4 -10 -10 -10 -5 0 -10 5 -10 10 0 6 5 10 10 10 6
0 10 -4 10 -10z m88 -95 c-1 -22 -6 -35 -14 -35 -10 0 -11 6 -4 25 6 17 6 25
-1 25 -6 0 -7 5 -4 10 13 21 24 9 23 -25z m92 25 c0 -5 -5 -10 -11 -10 -5 0
-7 5 -4 10 3 6 8 10 11 10 2 0 4 -4 4 -10z m-177 -6 c11 -11 -3 -24 -18 -18
-8 4 -12 10 -9 15 6 11 18 12 27 3z m-3 -64 c0 -5 -7 -10 -16 -10 -8 0 -12 5
-9 10 3 6 10 10 16 10 5 0 9 -4 9 -10z m93 -49 c5 -22 0 -31 -20 -31 -7 0 -13
11 -13 25 0 30 25 34 33 6z m97 15 c0 -2 -7 -6 -15 -10 -8 -3 -15 -1 -15 4 0
6 7 10 15 10 8 0 15 -2 15 -4z m293 -37 c-8 -8 -13 -7 -18 2 -5 8 -4 10 3 5 7
-4 12 -2 12 5 0 7 3 9 7 6 4 -4 2 -12 -4 -18z m-303 -3 c0 -3 -4 -8 -10 -11
-5 -3 -10 -1 -10 4 0 6 5 11 10 11 6 0 10 -2 10 -4z m117 -52 c-3 -3 -12 -4
-19 -1 -8 3 -5 6 6 6 11 1 17 -2 13 -5z m193 -18 c0 -8 -4 -17 -9 -21 -12 -7
-24 12 -16 25 9 15 25 12 25 -4z m80 -1 c0 -8 -4 -15 -10 -15 -5 0 -10 7 -10
15 0 8 5 15 10 15 6 0 10 -7 10 -15z m-275 -35 c-3 -5 -10 -10 -16 -10 -5 0
-9 5 -9 10 0 6 7 10 16 10 8 0 12 -4 9 -10z m-5 -50 c0 -5 -7 -10 -16 -10 -8
0 -12 5 -9 10 3 6 10 10 16 10 5 0 9 -4 9 -10z m92 -22 c-7 -7 -12 -8 -12 -2
0 14 12 26 19 19 2 -3 -1 -11 -7 -17z m-92 -2 c0 -2 3 -11 6 -20 4 -12 0 -16
-15 -16 -14 0 -21 6 -21 20 0 11 7 20 15 20 8 0 15 -2 15 -4z m200 -10 c0 -8
-5 -18 -12 -22 -7 -5 -9 -2 -5 9 3 9 1 18 -6 21 -7 2 -4 5 6 5 9 1 17 -5 17
-13z m-215 -46 c-3 -5 1 -10 9 -10 9 0 16 -4 16 -10 0 -11 -20 -13 -44 -4 -13
5 -14 9 -5 20 13 16 33 19 24 4z m221 -31 c10 -17 -13 -36 -27 -22 -12 12 -4
33 11 33 5 0 12 -5 16 -11z m-98 -16 c-5 -25 -28 -28 -28 -4 0 12 6 21 16 21
9 0 14 -7 12 -17z m95 -57 c7 -17 -1 -26 -21 -26 -11 0 -12 3 -3 13 6 8 8 17
4 20 -3 4 -2 7 4 7 6 0 13 -6 16 -14z m-101 -28 c-6 -6 -16 -7 -22 -3 -9 6 -9
9 1 16 17 10 34 0 21 -13z m98 -18 c0 -5 -5 -10 -11 -10 -5 0 -7 5 -4 10 3 6
8 10 11 10 2 0 4 -4 4 -10z m-101 -47 c-8 -9 -9 -14 -3 -10 7 4 12 -2 12 -18
0 -27 -22 -34 -31 -11 -9 22 4 56 20 56 13 0 13 -2 2 -17z m102 -26 c-1 -4 -1
-14 -1 -22 0 -8 -5 -15 -11 -15 -6 0 -9 7 -5 15 3 8 1 15 -5 15 -6 0 -7 5 -4
11 7 11 27 8 26 -4z"/>
<path d="M1955 10070 c-3 -5 1 -10 9 -10 8 0 18 5 21 10 3 6 -1 10 -9 10 -8 0
-18 -4 -21 -10z"/>
<path d="M8490 9845 c0 -8 2 -15 4 -15 2 0 6 7 10 15 3 8 1 15 -4 15 -6 0 -10
-7 -10 -15z"/>
<path d="M1520 9714 c0 -8 5 -12 10 -9 6 4 8 11 5 16 -9 14 -15 11 -15 -7z"/>
<path d="M1330 9692 c0 -7 -7 -12 -15 -12 -8 0 -15 -4 -15 -9 0 -17 15 -19 35
-5 15 11 16 17 7 26 -9 9 -12 9 -12 0z"/>
<path d="M1200 9485 c0 -8 2 -15 4 -15 2 0 6 7 10 15 3 8 1 15 -4 15 -6 0 -10
-7 -10 -15z"/>
<path d="M9167 9387 c-3 -8 1 -14 8 -14 7 0 11 6 8 14 -3 7 -6 13 -8 13 -2 0
-5 -6 -8 -13z"/>
<path d="M9260 9239 c0 -5 5 -7 10 -4 6 3 10 8 10 11 0 2 -4 4 -10 4 -5 0 -10
-5 -10 -11z"/>
<path d="M9228 9233 c7 -3 16 -2 19 1 4 3 -2 6 -13 5 -11 0 -14 -3 -6 -6z"/>
<path d="M930 9189 c0 -5 5 -7 10 -4 6 3 10 8 10 11 0 2 -4 4 -10 4 -5 0 -10
-5 -10 -11z"/>
<path d="M9342 9158 c5 -15 28 -23 28 -10 0 5 -7 13 -16 16 -10 4 -14 1 -12
-6z"/>
<path d="M567 8759 c7 -7 15 -10 18 -7 3 3 -2 9 -12 12 -14 6 -15 5 -6 -5z"/>
<path d="M80 8240 c0 -5 5 -10 11 -10 5 0 7 5 4 10 -3 6 -8 10 -11 10 -2 0 -4
-4 -4 -10z"/>
<path d="M0 8100 c0 -5 5 -10 11 -10 5 0 7 5 4 10 -3 6 -8 10 -11 10 -2 0 -4
-4 -4 -10z"/>
<path d="M0 2590 c0 -5 4 -10 9 -10 6 0 13 5 16 10 3 6 -1 10 -9 10 -9 0 -16
-4 -16 -10z"/>
<path d="M81 2110 c0 -8 3 -21 8 -28 7 -11 9 -10 14 3 4 9 3 13 -2 10 -5 -3
-12 3 -14 12 -3 13 -5 14 -6 3z"/>
<path d="M10092 2071 c-8 -4 -12 -19 -10 -32 2 -15 -2 -23 -9 -21 -7 1 -13 -2
-13 -7 0 -14 23 -19 45 -10 19 7 19 8 1 8 -16 1 -17 3 -5 18 10 11 10 14 2 9
-17 -9 -17 16 -1 32 14 14 9 15 -10 3z"/>
<path d="M9905 1800 c-3 -5 1 -10 10 -10 9 0 13 5 10 10 -3 6 -8 10 -10 10 -2
0 -7 -4 -10 -10z"/>
<path d="M440 1681 c0 -5 9 -11 21 -14 16 -4 18 -3 8 9 -13 16 -29 19 -29 5z"/>
<path d="M488 1573 c6 -2 18 -2 25 0 6 3 1 5 -13 5 -14 0 -19 -2 -12 -5z"/>
<path d="M9500 1359 c0 -5 14 -9 32 -9 37 0 34 7 -5 14 -15 2 -27 0 -27 -5z"/>
<path d="M770 1350 c0 -5 5 -10 11 -10 5 0 7 5 4 10 -3 6 -8 10 -11 10 -2 0
-4 -4 -4 -10z"/>
<path d="M815 1260 c3 -5 8 -10 11 -10 2 0 4 5 4 10 0 6 -5 10 -11 10 -5 0 -7
-4 -4 -10z"/>
<path d="M920 1190 c0 -5 5 -10 10 -10 6 0 10 5 10 10 0 6 -4 10 -10 10 -5 0
-10 -4 -10 -10z"/>
<path d="M1225 1070 c-3 -6 1 -7 9 -4 18 7 21 14 7 14 -6 0 -13 -4 -16 -10z"/>
<path d="M9123 1066 c2 -6 11 -12 20 -14 11 -2 15 1 12 11 -7 16 -37 19 -32 3z"/>
<path d="M1133 1036 c0 -8 6 -12 14 -9 7 3 13 9 13 14 0 5 -6 9 -13 9 -8 0
-14 -6 -14 -14z"/>
<path d="M9245 1010 c27 -12 43 -12 25 0 -8 5 -22 9 -30 9 -10 0 -8 -3 5 -9z"/>
<path d="M1328 828 c-33 -44 -78 -116 -78 -125 0 -4 7 3 16 15 12 18 19 20 34
12 13 -7 17 -16 13 -28 -13 -36 8 -3 31 51 19 41 22 55 11 50 -18 -6 -21 27
-3 45 7 7 9 12 6 12 -3 0 -17 -15 -30 -32z"/>
<path d="M462 501 c-8 -5 -12 -16 -10 -25 2 -12 6 -10 15 9 6 14 10 25 10 25
-1 0 -8 -4 -15 -9z"/>
<path d="M542 415 c0 -16 2 -22 5 -12 2 9 2 23 0 30 -3 6 -5 -1 -5 -18z"/>
<path d="M472 375 c0 -16 2 -22 5 -12 2 9 2 23 0 30 -3 6 -5 -1 -5 -18z"/>
<path d="M532 295 c0 -16 2 -22 5 -12 2 9 2 23 0 30 -3 6 -5 -1 -5 -18z"/>
<path d="M5523 261 c-71 -58 -139 -133 -186 -203 l-35 -53 41 -3 c36 -3 43 1
66 30 14 18 53 63 86 101 69 79 135 160 135 167 0 3 -11 7 -25 8 -16 1 -43
-14 -82 -47z"/>
<path d="M4682 242 c7 -16 40 -77 73 -135 l60 -107 42 0 c24 0 43 3 43 7 0 16
-133 204 -165 232 -47 41 -70 42 -53 3z"/>
<path d="M1965 189 c-11 -24 -41 -76 -67 -116 -46 -71 -47 -73 -23 -73 28 0
38 15 85 135 33 84 37 126 5 54z"/>
<path d="M242 185 c0 -16 2 -22 5 -12 2 9 2 23 0 30 -3 6 -5 -1 -5 -18z"/>
<path d="M413 110 c0 -25 2 -35 4 -22 2 12 2 32 0 45 -2 12 -4 2 -4 -23z"/>
<path d="M572 75 c0 -16 2 -22 5 -12 2 9 2 23 0 30 -3 6 -5 -1 -5 -18z"/>
<path d="M121 64 c0 -11 3 -14 6 -6 3 7 2 16 -1 19 -3 4 -6 -2 -5 -13z"/>
</g>
</svg>
